<svg width="1282" height="1282" viewBox="0 0 1282 1282" fill="none" xmlns="http://www.w3.org/2000/svg">
<path d="M641.022 0C514.203 0 390.283 37.5926 284.888 108.022C179.447 178.452 97.2866 278.594 48.7784 395.72C0.270266 512.846 -12.4118 641.702 12.3178 766.075C37.0475 890.403 98.1015 1004.63 187.735 1094.26C277.369 1183.9 391.597 1244.95 515.924 1269.68C640.297 1294.41 769.154 1281.73 886.28 1233.22C1003.41 1184.71 1103.55 1102.55 1173.98 997.112C1244.41 891.716 1282 767.797 1282 640.978C1282 556.825 1265.42 473.487 1233.22 395.72C1200.97 317.953 1153.78 247.251 1094.26 187.737C1034.75 128.223 964.047 81.0282 886.28 48.78C808.513 16.5771 725.175 0 641.022 0ZM843.116 387.884H761.047C705.02 387.884 694.331 414.381 694.331 453.423V536.398H827.762L810.325 666.568H694.331V1019.89H545.59V666.568H438.882V536.398H545.59V440.151C545.59 324.882 625.532 262.107 728.526 262.107C777.805 262.107 830.797 265.821 843.116 267.452V387.884Z" fill="#3F3D56"/>
<path d="M641.022 0C514.203 0 390.283 37.5926 284.888 108.022C179.447 178.452 97.2866 278.594 48.7784 395.72C0.270266 512.846 -12.4118 641.702 12.3178 766.075C37.0475 890.403 98.1015 1004.63 187.735 1094.26C277.369 1183.9 391.597 1244.95 515.924 1269.68C640.297 1294.41 769.154 1281.73 886.28 1233.22C1003.41 1184.71 1103.55 1102.55 1173.98 997.112C1244.41 891.716 1282 767.797 1282 640.978C1282 556.825 1265.42 473.487 1233.22 395.72C1200.97 317.953 1153.78 247.251 1094.26 187.737C1034.75 128.223 964.047 81.0282 886.28 48.78C808.513 16.5771 725.175 0 641.022 0ZM843.116 387.884H761.047C705.02 387.884 694.331 414.381 694.331 453.423V536.398H827.762L810.325 666.568H694.331V1019.89H545.59V666.568H438.882V536.398H545.59V440.151C545.59 324.882 625.532 262.107 728.526 262.107C777.805 262.107 830.797 265.821 843.116 267.452V387.884Z" fill="url(#paint0_linear)"/>
<defs>
<linearGradient id="paint0_linear" x1="641" y1="417.5" x2="641" y2="1282" gradientUnits="userSpaceOnUse">
<stop stop-color="#760BD8"/>
<stop offset="1" stop-color="#0095DF"/>
</linearGradient>
</defs>
</svg>
