<svg width="1282" height="1283" viewBox="0 0 1282 1283" fill="none" xmlns="http://www.w3.org/2000/svg">
<path d="M644.127 1275.77C996.415 1275.77 1282 990.187 1282 637.908C1282 285.629 996.415 0.0499878 644.127 0.0499878C291.839 0.0499878 6.25366 285.629 6.25366 637.908C6.25366 990.187 291.839 1275.77 644.127 1275.77Z" fill="#3F3D56"/>
<path d="M1006.96 447.582L815.989 640.646C815.654 640.966 815.387 641.35 815.204 641.775C815.021 642.2 814.927 642.657 814.927 643.119C814.927 643.581 815.021 644.038 815.204 644.463C815.387 644.888 815.654 645.272 815.989 645.592L949.984 787.172C953.19 790.382 955.37 794.46 956.251 798.897C957.132 803.333 956.675 807.929 954.937 812.107C953.199 816.286 950.257 819.862 946.482 822.385C942.706 824.909 938.264 826.268 933.714 826.292C927.59 826.28 921.719 823.864 917.379 819.572L784.086 678.498C783.406 677.832 782.489 677.459 781.534 677.459C780.578 677.459 779.662 677.832 778.981 678.498L746.504 711.088C733.206 724.6 717.325 735.336 699.793 742.664C682.261 749.992 663.432 753.764 644.412 753.758C625.032 753.669 605.865 749.743 588.029 742.21C570.194 734.677 554.048 723.687 540.535 709.883L509.333 678.181C508.652 677.515 507.736 677.142 506.78 677.142C505.825 677.142 504.909 677.515 504.228 678.181L371.254 818.938C369.115 821.068 366.574 822.757 363.776 823.91C360.979 825.063 357.98 825.657 354.952 825.657C351.923 825.657 348.925 825.063 346.127 823.91C343.33 822.757 340.789 821.068 338.649 818.938C336.498 816.816 334.791 814.292 333.626 811.512C332.461 808.732 331.861 805.75 331.861 802.738C331.861 799.726 332.461 796.744 333.626 793.964C334.791 791.184 336.498 788.66 338.649 786.539L472.133 645.275C472.726 644.586 473.052 643.709 473.052 642.802C473.052 641.895 472.726 641.018 472.133 640.329L281.159 447.265C280.668 446.774 280.041 446.44 279.359 446.304C278.676 446.168 277.969 446.237 277.326 446.502C276.683 446.767 276.133 447.217 275.748 447.793C275.363 448.369 275.158 449.046 275.161 449.738V836.057C275.211 850.991 281.204 865.298 291.831 875.858C302.458 886.418 316.857 892.372 331.886 892.423H956.365C971.394 892.372 985.793 886.418 996.42 875.858C1007.05 865.298 1013.04 850.991 1013.09 836.057V450.054C1013.12 449.335 1012.93 448.624 1012.54 448.019C1012.15 447.413 1011.58 446.942 1010.9 446.671C1010.23 446.401 1009.49 446.343 1008.79 446.506C1008.08 446.669 1007.45 447.044 1006.96 447.582V447.582Z" fill="#F1F1F1"/>
<path d="M646.999 710.173C659.927 710.301 672.748 707.808 684.701 702.842C696.654 697.876 707.495 690.539 716.58 681.266L994.332 396.241C984.472 388.007 972.089 383.467 959.286 383.393H335.221C322.413 383.435 310.019 387.979 300.176 396.241L577.991 681.266C586.995 690.486 597.741 697.795 609.593 702.759C621.446 707.724 634.164 710.245 646.999 710.173V710.173Z" fill="#F1F1F1"/>
<path opacity="0.1" d="M635.064 0.0500679C509.496 -0.0133188 386.73 37.5349 282.298 107.945C177.866 178.354 96.4599 278.461 48.3782 395.602C0.296402 512.742 -12.3004 641.653 12.1813 766.024C36.663 890.396 97.1231 1004.64 185.913 1094.31C274.703 1183.97 387.833 1245.03 510.992 1269.75C634.15 1294.47 761.802 1281.75 877.8 1233.2C993.798 1184.64 1092.93 1102.43 1162.65 996.97C1232.37 891.509 1269.56 767.535 1269.49 640.73C1269.41 470.837 1202.54 307.927 1083.58 187.794C964.62 67.6622 803.299 0.134993 635.064 0.0500679ZM635.064 1196.28C526.257 1196.28 419.894 1163.7 329.425 1102.66C238.956 1041.61 168.444 954.845 126.806 853.331C85.1674 751.817 74.273 640.113 95.5001 532.346C116.727 424.579 169.122 325.589 246.06 247.893C322.997 170.197 421.022 117.286 527.738 95.8497C634.453 74.4135 745.067 85.4152 845.591 127.464C946.115 169.512 1032.03 240.719 1092.48 332.08C1152.93 423.44 1185.2 530.851 1185.2 640.73C1185.2 788.072 1127.24 929.379 1024.07 1033.57C920.897 1137.75 780.969 1196.28 635.064 1196.28Z" fill="#3F3D56"/>
</svg>
