<svg width="1282" height="1282" viewBox="0 0 1282 1282" fill="none" xmlns="http://www.w3.org/2000/svg">
<path d="M647.952 743.384C707.602 743.384 755.974 695.012 755.974 635.317C755.974 575.666 707.602 527.294 647.952 527.294C588.256 527.294 539.883 575.666 539.883 635.317C539.883 695.012 588.256 743.384 647.952 743.384Z" fill="#3F3D56"/>
<path d="M782.968 365.192H512.889C477.108 365.328 442.822 379.595 417.504 404.868C392.185 430.187 377.918 464.473 377.828 500.254V770.379C377.918 806.16 392.185 840.445 417.504 865.764C442.822 891.082 477.108 905.349 512.889 905.44H783.013C818.794 905.349 853.081 891.082 878.354 865.764C903.672 840.445 917.939 806.16 918.03 770.379V500.254C917.939 464.473 903.672 430.187 878.354 404.868C853.081 379.595 818.794 365.328 783.013 365.192H782.968ZM647.952 797.373C615.885 797.373 584.542 787.907 557.91 770.061C531.233 752.261 510.489 726.943 498.215 697.367C485.94 667.746 482.725 635.135 488.975 603.702C495.225 572.27 510.67 543.373 533.316 520.727C556.008 498.08 584.859 482.635 616.337 476.385C647.77 470.135 680.335 473.351 709.957 485.58C739.578 497.854 764.897 518.643 782.696 545.275C800.496 571.952 810.007 603.249 810.007 635.316C810.007 678.299 792.932 719.515 762.541 749.906C732.15 780.298 690.934 797.373 647.952 797.373ZM823.504 500.254C815.488 500.254 807.652 497.899 800.994 493.46C794.336 488.976 789.128 482.681 786.093 475.253C783.014 467.87 782.198 459.718 783.783 451.837C785.323 444.001 789.173 436.754 794.835 431.093C800.541 425.431 807.743 421.581 815.624 419.996C823.459 418.456 831.612 419.272 838.995 422.306C846.423 425.386 852.764 430.595 857.202 437.253C861.641 443.911 864.041 451.746 864.041 459.763C864.041 465.062 862.999 470.361 860.961 475.253C858.923 480.19 855.934 484.674 852.175 488.434C848.416 492.193 843.932 495.182 839.04 497.22C834.103 499.258 828.849 500.3 823.504 500.254Z" fill="#3F3D56"/>
<path d="M641.022 0C514.203 0 390.283 37.5926 284.888 108.022C179.447 178.452 97.2866 278.594 48.7784 395.72C0.270266 512.846 -12.4118 641.702 12.3178 766.075C37.0475 890.403 98.1015 1004.63 187.735 1094.26C277.369 1183.9 391.597 1244.95 515.924 1269.68C640.297 1294.41 769.154 1281.73 886.28 1233.22C1003.41 1184.71 1103.55 1102.55 1173.98 997.112C1244.41 891.716 1282 767.797 1282 640.978C1282 556.825 1265.42 473.487 1233.22 395.72C1200.97 317.953 1153.78 247.251 1094.26 187.737C1034.75 128.223 964.047 81.0282 886.28 48.78C808.513 16.5771 725.175 0 641.022 0ZM972.064 770.379C971.928 820.472 951.954 868.482 916.535 903.901C881.117 939.365 833.107 959.293 782.968 959.475H512.889C462.796 959.293 414.786 939.365 379.322 903.901C343.904 868.482 323.93 820.472 323.794 770.379V500.254C323.93 450.161 343.904 402.151 379.322 366.732C414.786 331.314 462.796 311.34 512.889 311.204H783.013C833.107 311.34 881.117 331.314 916.535 366.732C951.954 402.151 971.928 450.161 972.064 500.254V770.379Z" fill="#3F3D56"/>
</svg>
