<svg width="930" height="819" viewBox="0 0 930 819" fill="none" xmlns="http://www.w3.org/2000/svg">
<g id="undraw_product_teardown_elol 1">
<g id="phone-5">
<path id="Vector" d="M350.77 698.35C344.389 698.35 338.269 695.815 333.757 691.303C329.245 686.791 326.71 680.671 326.71 674.29V510.95H308V675.4C308 685.743 312.109 695.663 319.423 702.977C326.737 710.291 336.657 714.4 347 714.4H460.52V698.4L350.77 698.35Z" fill="#3A3768"/>
<path id="Vector_2" d="M467.52 625.62C469.554 626.26 471.263 627.661 472.29 629.53C476.13 636.06 482.15 640.27 488.93 640.27C500.51 640.27 509.93 628 509.93 612.85C509.93 597.7 500.52 585.49 488.97 585.49C483.52 585.49 478.55 588.21 474.82 592.68C473.405 594.39 472.207 596.267 471.25 598.27L471.05 599.46C471.05 599.46 466.58 603.28 460.49 599.77V510.95H373.77C373.069 510.031 372.606 508.953 372.422 507.812C372.239 506.671 372.341 505.502 372.72 504.41C373.368 502.38 374.766 500.674 376.63 499.64C383.16 495.8 387.38 489.78 387.38 483C387.38 471.42 375.1 462 359.96 462C344.82 462 332.54 471.39 332.54 483C332.54 488.45 335.27 493.43 339.74 497.16C341.448 498.569 343.322 499.764 345.32 500.72L345.44 500.92C346.751 502.189 347.621 503.845 347.922 505.645C348.222 507.445 347.938 509.294 347.11 510.92H326.71V674.29C326.71 680.671 329.245 686.791 333.757 691.303C338.269 695.815 344.389 698.35 350.77 698.35H460.52V627.12C461.439 626.255 462.577 625.657 463.811 625.393C465.045 625.128 466.327 625.207 467.52 625.62Z" fill="#6C63FF"/>
</g>
<g id="phone-3">
<path id="Vector_3" d="M326.71 299.95H310.48V321.04C310.48 321.342 310.42 321.64 310.305 321.919C310.189 322.197 310.019 322.45 309.806 322.663C309.592 322.876 309.338 323.044 309.059 323.159C308.78 323.273 308.482 323.331 308.18 323.33H308V503.75H326.71V299.95Z" fill="#3A3768"/>
<g id="Group 2">
<path id="Vector_4" d="M329.58 482.2C329.58 466.61 343.18 453.98 359.95 453.98C376.72 453.98 390.33 466.61 390.33 482.2C390.302 486.37 389.322 490.479 387.466 494.213C385.61 497.948 382.927 501.209 379.62 503.75H461.02V416.12C461.951 415.25 463.101 414.651 464.346 414.387C465.592 414.123 466.887 414.203 468.09 414.62C470.125 415.263 471.837 416.662 472.87 418.53C476.7 425.06 482.72 429.27 489.51 429.27C501.09 429.27 510.51 417 510.51 401.86C510.51 386.72 501.13 374.44 489.51 374.44C484.05 374.44 479.08 377.17 475.35 381.63C473.94 383.343 472.741 385.22 471.78 387.22L471.59 387.34C470.25 388.739 468.473 389.641 466.552 389.898C464.631 390.154 462.68 389.749 461.02 388.75V299.95H377.53C376.829 299.031 376.366 297.953 376.182 296.812C375.999 295.671 376.102 294.502 376.48 293.41C377.123 291.377 378.523 289.67 380.39 288.64C386.92 284.81 391.13 278.78 391.13 272C391.13 260.42 378.86 251 363.72 251C348.58 251 336.3 260.39 336.3 272C336.3 277.46 339.03 282.43 343.49 286.16C345.203 287.57 347.08 288.769 349.08 289.73L349.2 289.92C350.511 291.189 351.381 292.845 351.682 294.645C351.983 296.445 351.698 298.294 350.87 299.92H326.71V503.75H340.29C336.983 501.209 334.3 497.948 332.444 494.213C330.588 490.479 329.608 486.37 329.58 482.2V482.2Z" fill="#6C63FF"/>
</g>
</g>
<g id="phone-1">
<path id="Vector_5" d="M307.02 133.99V176.21C307.611 176.231 308.17 176.48 308.581 176.905C308.991 177.331 309.22 177.899 309.22 178.49V198.49C309.218 199.08 308.988 199.647 308.578 200.072C308.168 200.497 307.61 200.747 307.02 200.77V221.19H307.37C307.671 221.19 307.969 221.249 308.246 221.364C308.524 221.479 308.777 221.648 308.989 221.861C309.202 222.073 309.371 222.326 309.486 222.604C309.601 222.882 309.66 223.179 309.66 223.48V261.67C309.66 262.277 309.419 262.86 308.989 263.289C308.56 263.719 307.977 263.96 307.37 263.96H307V278.96H307.18C307.788 278.96 308.372 279.201 308.803 279.63C309.234 280.059 309.477 280.642 309.48 281.25V293.83H325.71V135.13C325.71 128.751 328.244 122.632 332.753 118.121C337.263 113.609 343.381 111.073 349.76 111.07H382.37V115.25C382.37 120.504 384.457 125.543 388.172 129.258C391.887 132.973 396.926 135.06 402.18 135.06H459.55V121.98H433.14C432.119 121.975 431.14 121.568 430.416 120.848C429.692 120.127 429.28 119.151 429.27 118.13V117.29C429.273 116.264 429.681 115.282 430.406 114.556C431.132 113.831 432.114 113.423 433.14 113.42H459.5V95H346C335.662 95.0053 325.749 99.1152 318.439 106.426C311.13 113.738 307.023 123.652 307.02 133.99V133.99Z" fill="#3A3768"/>
<path id="Vector_6" d="M332.37 272.33C332.37 256.74 345.97 244.1 362.75 244.1C379.53 244.1 393.12 256.74 393.12 272.33C393.08 276.495 392.091 280.596 390.229 284.322C388.366 288.047 385.678 291.299 382.37 293.83H459.47V205.13C460.398 204.253 461.55 203.649 462.799 203.384C464.048 203.119 465.346 203.205 466.55 203.63C468.581 204.276 470.288 205.675 471.32 207.54C475.15 214.07 481.18 218.28 487.96 218.28C499.54 218.28 508.96 206.01 508.96 190.86C508.96 175.71 499.58 163.45 487.96 163.45C482.5 163.45 477.53 166.17 473.8 170.64C472.385 172.35 471.187 174.227 470.23 176.23L470.04 177.42C470.04 177.42 465.57 181.24 459.47 177.73V135.03H402.13C396.885 135.017 391.859 132.924 388.154 129.21C384.45 125.496 382.37 120.465 382.37 115.22V111.04H349.78C346.619 111.041 343.489 111.666 340.569 112.877C337.649 114.089 334.996 115.864 332.763 118.101C330.529 120.338 328.759 122.994 327.552 125.916C326.345 128.838 325.726 131.969 325.73 135.13V293.83H343.07C339.771 291.294 337.093 288.04 335.239 284.315C333.385 280.589 332.404 276.491 332.37 272.33V272.33Z" fill="#6C63FF"/>
</g>
<g id="phone-2">
<g id="Group 7">
<path id="Vector_7" d="M604 234.39V293.75H610.75V232H607.1C605.39 232 604 233.07 604 234.39Z" fill="#3A3768"/>
<path id="Vector_8" d="M612.13 234.51H610.25V293.68H614.42V236.81C614.42 236.202 614.179 235.618 613.75 235.187C613.321 234.756 612.738 234.513 612.13 234.51V234.51Z" fill="#3A3768"/>
</g>
<g id="Group 10">
<g id="Group 6">
<path id="Vector_9" d="M472.05 95H464.05V113H472.05V95Z" fill="#3A3768"/>
<path id="Vector_10" d="M472.05 122H464.05V135H472.05V122Z" fill="#3A3768"/>
<path id="Vector_11" d="M472.04 113C474.17 113.48 476.04 117.36 476.04 117.36V118.2C476.04 118.2 474.16 122.07 472.04 122V135H517.23C522.485 134.997 527.524 132.908 531.238 129.191C534.953 125.475 537.04 120.435 537.04 115.18V111H571.04C577.41 111.013 583.514 113.553 588.014 118.062C592.513 122.571 595.04 128.68 595.04 135.05V251.56C598.173 254.063 600.702 257.239 602.44 260.853C604.178 264.467 605.081 268.425 605.081 272.435C605.081 276.445 604.178 280.403 602.44 284.017C600.702 287.631 598.173 290.807 595.04 293.31V293.98H609.04V235.29C609.04 235.251 609.048 235.213 609.063 235.177C609.078 235.141 609.1 235.108 609.128 235.081C609.156 235.054 609.19 235.033 609.226 235.019C609.262 235.005 609.301 234.999 609.34 235H614.04V132.5C614.041 127.575 613.072 122.698 611.188 118.148C609.304 113.598 606.542 109.463 603.059 105.981C599.577 102.498 595.443 99.7359 590.892 97.8518C586.342 95.9678 581.465 94.9987 576.54 95H471.05V113H472.04ZM487.18 112.91C488.143 112.91 489.085 113.196 489.886 113.731C490.686 114.266 491.311 115.026 491.679 115.916C492.048 116.806 492.144 117.785 491.956 118.73C491.769 119.675 491.305 120.543 490.624 121.224C489.943 121.905 489.075 122.369 488.13 122.556C487.185 122.744 486.206 122.648 485.316 122.279C484.426 121.911 483.666 121.286 483.131 120.486C482.596 119.685 482.31 118.743 482.31 117.78C482.31 116.488 482.823 115.25 483.736 114.336C484.65 113.423 485.888 112.91 487.18 112.91Z" fill="#3A3768"/>
<path id="Vector_12" d="M486 159.94C501.71 159.94 514.45 173.55 514.45 190.33C514.45 207.11 501.71 220.72 486 220.72C481.73 220.696 477.523 219.687 473.706 217.77C469.89 215.854 466.569 213.081 464 209.67V294H555C551.703 291.456 549.027 288.196 547.175 284.466C545.323 280.736 544.343 276.634 544.31 272.47C544.31 256.86 557.88 244.21 574.63 244.21C582.093 244.159 589.331 246.765 595.05 251.56V135.05C595.05 128.68 592.523 122.571 588.024 118.062C583.524 113.553 577.42 111.013 571.05 111H537.05V115.18C537.05 120.435 534.963 125.475 531.248 129.191C527.534 132.908 522.495 134.997 517.24 135H464.05V171C466.614 167.594 469.927 164.825 473.734 162.907C477.54 160.989 481.738 159.974 486 159.94V159.94Z" fill="#6C63FF"/>
<path id="Vector_13" d="M472.04 122C473.067 122.001 474.055 121.607 474.8 120.9C475.545 120.193 475.989 119.226 476.04 118.2V117.36C475.924 116.302 475.474 115.309 474.754 114.525C474.035 113.741 473.084 113.206 472.04 113H471.04V122H472.04Z" fill="#E6E8EC"/>
<path id="Vector_14" d="M487.961 122.565C490.615 122.135 492.418 119.633 491.987 116.978C491.556 114.323 489.055 112.52 486.4 112.951C483.745 113.382 481.942 115.884 482.373 118.539C482.804 121.194 485.306 122.996 487.961 122.565Z" fill="#E6E8EC"/>
</g>
</g>
</g>
<g id="phone-6">
<path id="Vector_15" d="M592.22 503.85V493.85C594.293 490.995 595.41 487.558 595.41 484.03C595.41 480.502 594.293 477.064 592.22 474.21V503.85Z" fill="#3A3768"/>
<path id="Vector_16" d="M610.93 507.71H592.22V512.01H610.93V507.71Z" fill="#3A3768"/>
<path id="Vector_17" d="M584.67 500.69C582.805 501.722 581.406 503.429 580.76 505.46C580.38 506.553 580.277 507.724 580.46 508.867C580.643 510.01 581.107 511.09 581.81 512.01H592.22V507.71H588.22C589.67 506.55 591.009 505.258 592.22 503.85V493.85C590.229 496.651 587.653 498.985 584.67 500.69V500.69Z" fill="#6C63FF"/>
<path id="Vector_18" d="M588.2 507.71H592.2V503.85C590.989 505.258 589.65 506.55 588.2 507.71V507.71Z" fill="#6C63FF"/>
<path id="Vector_19" d="M595.41 484.05C595.386 480.526 594.272 477.096 592.22 474.23V493.86C594.267 490.996 595.381 487.57 595.41 484.05V484.05Z" fill="#3A3768"/>
<g id="Group 9">
<path id="Vector_20" d="M611 511.93V675.84C611 686.184 606.891 696.103 599.577 703.417C592.263 710.731 582.343 714.84 572 714.84H467V698.84H568.23C574.611 698.84 580.731 696.305 585.243 691.793C589.755 687.281 592.29 681.161 592.29 674.78V511.93H611Z" fill="#3A3768"/>
<path id="Vector_21" d="M580.83 505.38C581.476 503.349 582.875 501.642 584.74 500.61C587.722 498.908 590.298 496.577 592.29 493.78V474.15C587.68 467.52 578.57 463 568.07 463C552.92 463 540.65 472.39 540.65 484C540.65 489.46 543.38 494.43 547.84 498.16C549.553 499.57 551.43 500.769 553.43 501.73L553.55 501.92C554.86 503.19 555.729 504.846 556.029 506.645C556.33 508.445 556.046 510.293 555.22 511.92H467V593.92C469.533 590.53 472.817 587.773 476.594 585.865C480.371 583.957 484.538 582.949 488.77 582.92C504.36 582.92 516.99 596.52 516.99 613.29C516.99 630.06 504.36 643.67 488.77 643.67C484.538 643.641 480.371 642.633 476.594 640.725C472.817 638.817 469.533 636.06 467 632.67V698.86H568.23C574.601 698.86 580.711 696.333 585.222 691.834C589.732 687.335 592.274 681.231 592.29 674.86V511.93H581.91C581.202 511.013 580.733 509.934 580.544 508.791C580.356 507.648 580.454 506.476 580.83 505.38V505.38Z" fill="#6C63FF"/>
</g>
<path id="Vector_22" opacity="0.1" d="M778.89 710.34C778.89 710.34 780.28 719.49 785.83 722.54L778.89 710.34Z" fill="black"/>
</g>
<g id="phone-4">
<path id="Vector_23" d="M590.69 288.655C595.494 284.866 598.475 279.761 598.528 274.161C598.535 273.482 598.496 272.803 598.412 272.129C598.502 271.463 598.555 270.792 598.57 270.12C598.618 264.501 595.749 259.415 591.012 255.641L590.712 284.578L590.69 288.655Z" fill="url(#paint0_linear)"/>
<path id="Vector_24" d="M540.235 420.931C548.976 421.962 567.617 417.652 575.864 415.591C578.367 414.965 579.919 414.577 579.919 414.577L582.514 402.487L574.983 394.835C574.983 394.835 569.798 394.708 563.065 395.155C553.131 395.824 539.786 397.738 534.548 403.129C525.756 412.161 528.848 419.583 540.235 420.931Z" fill="#FEC2BE"/>
<path id="Vector_25" opacity="0.1" d="M575.854 415.593C578.357 414.967 579.909 414.579 579.909 414.579L582.504 402.489L574.983 394.835C574.983 394.835 569.798 394.708 563.065 395.155C569.254 397.689 583.918 402.909 575.854 415.593Z" fill="black"/>
<path id="Vector_26" d="M544.717 504.17L548.712 504.192L548.84 508.21L545.137 508.198L544.717 504.17Z" fill="#6C63FF"/>
<path id="Vector_27" opacity="0.1" d="M544.717 504.17L548.712 504.192L548.84 508.21L545.137 508.198L544.717 504.17Z" fill="black"/>
<path id="Vector_28" d="M611.764 298.796L611.744 303.636L615.914 303.654L615.934 298.814L611.764 298.796Z" fill="#3A3768"/>
<path id="Vector_29" d="M593.042 298.712L593.022 303.552L606.852 303.61L606.872 298.77L593.042 298.712Z" fill="#3A3768"/>
<path id="Vector_30" d="M606.868 298.783L606.847 303.623L611.737 303.644L611.757 298.804L606.868 298.783Z" fill="#3A3768"/>
<path id="Vector_31" d="M593.096 298.073C592.822 298.296 592.56 298.526 592.29 298.727L593.096 298.732L593.069 303.573L586.95 303.547C586.256 302.624 585.8 301.544 585.625 300.402C585.449 299.261 585.558 298.094 585.943 297.005C586.597 294.964 588.018 293.256 589.906 292.242C591.05 291.58 592.141 290.831 593.171 290.003L593.096 298.073Z" fill="#6C63FF"/>
<path id="Vector_32" d="M611.735 314.286L613.604 314.303C613.906 314.305 614.205 314.247 614.484 314.133C614.764 314.019 615.018 313.851 615.232 313.638C615.446 313.426 615.616 313.173 615.732 312.895C615.848 312.616 615.908 312.318 615.909 312.016L615.909 303.687L611.785 303.687L611.735 314.286Z" fill="#3A3768"/>
<path id="Vector_33" d="M600.655 275.66C600.626 281.233 597.757 286.29 593.103 290.02L593.224 261.231C597.878 265.005 600.704 270.082 600.655 275.66Z" fill="#3A3768"/>
<path id="Vector_34" d="M609.135 314.276C608.529 314.272 607.949 314.028 607.523 313.598C607.096 313.167 606.858 312.585 606.86 311.98L606.896 303.631L593.069 303.573L592.356 469.232C596.642 474.124 598.993 480.413 598.965 486.916C598.937 493.42 596.533 499.689 592.206 504.543L592.191 508.402L610.908 508.516L611.744 314.325L609.135 314.276Z" fill="#3A3768"/>
<path id="Vector_35" d="M606.86 311.98C606.858 312.585 607.096 313.167 607.523 313.598C607.949 314.028 608.529 314.272 609.135 314.276L611.734 314.286L611.778 303.658L606.896 303.631L606.86 311.98Z" fill="#3A3768"/>
<path id="Vector_36" d="M585.934 297.008C586.595 294.971 588.014 293.265 589.897 292.244C591.035 291.581 592.123 290.833 593.151 290.008L593.282 261.217C587.594 256.811 580.579 254.466 573.385 254.564C558.246 254.494 545.922 263.831 545.879 275.408C545.852 280.867 548.561 285.849 553.014 289.601C554.715 291.02 556.585 292.225 558.58 293.188L558.702 293.384C560.014 294.663 560.881 296.33 561.174 298.139C561.467 299.948 561.169 301.803 560.327 303.43L467.807 303.028L467.457 385.041C469.996 381.667 473.279 378.925 477.051 377.027C480.822 375.13 484.981 374.128 489.203 374.1C504.796 374.171 517.374 387.828 517.298 404.597C517.223 421.366 504.57 434.909 488.99 434.887C484.756 434.833 480.592 433.8 476.824 431.868C473.055 429.937 469.786 427.159 467.271 423.752L466.902 507.914L548.852 508.259C545.56 505.711 542.892 502.446 541.052 498.713C539.211 494.979 538.246 490.875 538.229 486.712C538.302 471.129 551.947 458.544 568.726 458.617C573.194 458.595 577.616 459.531 581.692 461.362C585.768 463.194 589.404 465.877 592.356 469.232L593.069 303.573L587.008 303.532C586.305 302.617 585.839 301.543 585.652 300.405C585.464 299.267 585.561 298.1 585.934 297.008V297.008Z" fill="#6C63FF"/>
<path id="Vector_37" d="M593.086 298.735L593.096 298.073C592.831 298.293 592.569 298.524 592.293 298.737L593.086 298.735Z" fill="#6C63FF"/>
<g id="Group" opacity="0.1">
<path id="Vector_38" opacity="0.1" d="M611.795 298.82L606.913 298.793L593.096 298.732L593.105 298.07L593.151 290.008C592.122 290.836 591.03 291.585 589.887 292.247C587.999 293.261 586.578 294.969 585.924 297.01C585.761 297.57 585.649 298.143 585.589 298.723C585.645 298.144 585.754 297.572 585.914 297.013C586.575 294.975 587.994 293.27 589.877 292.249C591.016 291.585 592.104 290.838 593.132 290.013L593.263 261.222C587.574 256.816 580.56 254.471 573.365 254.569C558.226 254.499 545.903 263.836 545.859 275.412C545.833 280.872 548.542 285.854 552.995 289.606C554.696 291.025 556.565 292.23 558.561 293.193L558.682 293.389C559.995 294.668 560.862 296.335 561.154 298.144C561.447 299.953 561.15 301.808 560.307 303.435L467.787 303.032L467.438 385.046C469.978 381.669 473.264 378.924 477.039 377.025C480.815 375.127 484.977 374.126 489.203 374.1C504.796 374.171 517.374 387.828 517.298 404.597C517.223 421.366 504.57 434.909 488.99 434.887C484.756 434.833 480.592 433.8 476.824 431.868C473.055 429.937 469.786 427.159 467.271 423.752L466.902 507.914L548.852 508.259C545.56 505.711 542.892 502.446 541.052 498.713C539.211 494.979 538.246 490.875 538.229 486.712C538.302 471.129 551.947 458.544 568.726 458.617C573.194 458.595 577.616 459.531 581.692 461.362C585.768 463.194 589.404 465.877 592.356 469.232C596.642 474.124 598.993 480.413 598.965 486.916C598.937 493.42 596.533 499.689 592.206 504.543L592.191 508.402L610.908 508.516L611.744 314.325L613.614 314.342C613.916 314.344 614.215 314.286 614.494 314.172C614.773 314.058 615.027 313.89 615.242 313.677C615.456 313.465 615.626 313.212 615.742 312.933C615.858 312.655 615.918 312.356 615.918 312.055L615.909 303.687L615.926 298.849L611.795 298.82ZM592.693 298.441C592.564 298.545 592.438 298.659 592.307 298.754L592.693 298.441ZM586.967 303.573L593.086 303.6L586.967 303.573Z" fill="black"/>
<path id="Vector_39" opacity="0.1" d="M600.655 275.66C600.675 270.089 597.852 265.022 593.224 261.231L593.103 290.02C597.786 286.283 600.653 281.216 600.655 275.66Z" fill="black"/>
</g>
<path id="Vector_40" d="M611.779 294.807L611.758 299.647L615.928 299.665L615.949 294.825L611.779 294.807Z" fill="#3A3768"/>
<path id="Vector_41" d="M593.057 294.722L593.036 299.562L606.866 299.621L606.887 294.781L593.057 294.722Z" fill="#3A3768"/>
<path id="Vector_42" d="M606.88 294.774L606.859 299.614L611.749 299.635L611.77 294.795L606.88 294.774Z" fill="#3A3768"/>
<path id="Vector_43" d="M593.115 294.068L592.312 294.733L593.105 294.73L593.096 299.598L586.976 299.571C586.276 298.652 585.816 297.573 585.639 296.431C585.461 295.289 585.572 294.121 585.96 293.033C586.619 290.994 588.038 289.288 589.923 288.269C591.064 287.608 592.152 286.86 593.178 286.033L593.115 294.068Z" fill="#6C63FF"/>
<path id="Vector_44" d="M611.747 310.294L613.624 310.299C613.929 310.305 614.231 310.249 614.514 310.137C614.798 310.024 615.055 309.856 615.273 309.642C615.49 309.428 615.662 309.173 615.78 308.892C615.898 308.611 615.958 308.309 615.957 308.004L615.996 299.666L611.873 299.666L611.747 310.294Z" fill="#3A3768"/>
<path id="Vector_45" d="M600.687 271.663C600.665 277.224 597.796 282.281 593.132 286.014L593.263 257.222C597.898 261.001 600.723 266.077 600.687 271.663Z" fill="#3A3768"/>
<path id="Vector_46" d="M609.156 310.282C608.855 310.28 608.558 310.219 608.28 310.102C608.003 309.985 607.751 309.815 607.539 309.601C607.328 309.387 607.161 309.133 607.047 308.854C606.934 308.575 606.877 308.276 606.879 307.975L606.86 299.651L593.096 299.598L592.388 465.235C596.679 470.122 599.032 476.411 599.004 482.915C598.976 489.418 596.568 495.687 592.235 500.536L592.22 504.395L610.939 504.478L611.766 310.289L609.156 310.282Z" fill="#3A3768"/>
<path id="Vector_47" d="M606.879 307.975C606.877 308.276 606.934 308.575 607.047 308.854C607.161 309.133 607.328 309.387 607.539 309.601C607.751 309.815 608.003 309.985 608.28 310.102C608.558 310.219 608.855 310.28 609.156 310.282L611.747 310.294L611.807 299.651L606.918 299.637L606.879 307.975Z" fill="#3A3768"/>
<path id="Vector_48" d="M585.953 293.004C586.611 290.965 588.031 289.258 589.916 288.24C591.056 287.579 592.144 286.831 593.171 286.004L593.292 257.215C587.607 252.81 580.596 250.464 573.404 250.56C558.258 250.502 545.942 259.827 545.891 271.415C545.872 276.863 548.571 281.847 553.034 285.597C554.735 287.019 556.606 288.227 558.602 289.193L558.721 289.38C560.031 290.66 560.896 292.327 561.188 294.135C561.481 295.944 561.186 297.798 560.346 299.426L467.819 299.036L467.438 381.047C469.981 377.664 473.271 374.917 477.053 373.018C480.834 371.12 485.003 370.122 489.235 370.103C504.815 370.166 517.403 383.821 517.33 400.6C517.257 417.378 504.59 430.905 488.961 430.854C484.73 430.792 480.571 429.753 476.808 427.818C473.045 425.884 469.78 423.106 467.268 419.702L466.909 503.862L548.852 504.218C545.562 501.669 542.895 498.404 541.056 494.67C539.217 490.935 538.254 486.831 538.239 482.669C538.3 467.079 551.957 454.501 568.735 454.574C573.212 454.55 577.641 455.49 581.722 457.329C585.803 459.169 589.441 461.865 592.388 465.235L593.096 299.598L586.976 299.571C586.275 298.647 585.814 297.563 585.635 296.417C585.457 295.27 585.566 294.097 585.953 293.004Z" fill="#6C63FF"/>
<path id="Vector_49" d="M593.108 294.74L593.105 294.071C592.841 294.291 592.579 294.522 592.312 294.733L593.108 294.74Z" fill="#6C63FF"/>
</g>
</g>
<defs>
<linearGradient id="paint0_linear" x1="596.831" y1="287.12" x2="589.086" y2="256.143" gradientUnits="userSpaceOnUse">
<stop stop-color="#808080" stop-opacity="0.25"/>
<stop offset="0.54" stop-color="#808080" stop-opacity="0.12"/>
<stop offset="1" stop-color="#808080" stop-opacity="0.1"/>
</linearGradient>
</defs>
</svg>
