<svg width="4553" height="4181" viewBox="0 0 4553 4181" fill="none" xmlns="http://www.w3.org/2000/svg">
<g id="undraw_social_girl_562b 1 (1) 1">
<g id="heart3">
<g id="heart3_2">
<path id="Vector" d="M662.794 2465.65C655.87 2458.72 647.648 2453.22 638.597 2449.47C629.547 2445.71 619.846 2443.78 610.048 2443.78C600.25 2443.77 590.547 2445.7 581.495 2449.45C572.442 2453.2 564.217 2458.69 557.288 2465.62C550.36 2472.55 544.865 2480.77 541.117 2489.82C537.369 2498.88 535.441 2508.58 535.444 2518.38C535.447 2528.17 537.381 2537.87 541.134 2546.92C544.888 2555.97 550.388 2564.19 557.321 2571.12L662.794 2676.58L768.267 2571.12C775.199 2564.19 780.7 2555.97 784.453 2546.92C788.207 2537.87 790.14 2528.17 790.143 2518.38C790.146 2508.58 788.218 2498.88 784.47 2489.82C780.722 2480.77 775.227 2472.55 768.299 2465.62C761.371 2458.69 753.145 2453.2 744.093 2449.45C735.04 2445.7 725.338 2443.77 715.54 2443.78C705.742 2443.78 696.04 2445.71 686.99 2449.47C677.94 2453.22 669.718 2458.72 662.794 2465.65Z" fill="#FF6584"/>
</g>
</g>
<g id="email">
<path id="Vector_2" d="M1683.22 2305.66C1761 2305.66 1824.05 2242.61 1824.05 2164.83C1824.05 2087.05 1761 2024 1683.22 2024C1605.43 2024 1542.38 2087.05 1542.38 2164.83C1542.38 2242.61 1605.43 2305.66 1683.22 2305.66Z" fill="#3F3D56"/>
<path id="Vector_3" d="M1763.33 2122.81L1721.16 2165.44C1721.09 2165.51 1721.03 2165.59 1720.99 2165.68C1720.95 2165.78 1720.93 2165.88 1720.93 2165.98C1720.93 2166.08 1720.95 2166.18 1720.99 2166.28C1721.03 2166.37 1721.09 2166.46 1721.16 2166.53L1750.74 2197.79C1751.45 2198.5 1751.93 2199.4 1752.13 2200.38C1752.32 2201.35 1752.22 2202.37 1751.84 2203.29C1751.45 2204.21 1750.81 2205 1749.97 2205.56C1749.14 2206.12 1748.16 2206.42 1747.15 2206.42C1745.8 2206.42 1744.5 2205.89 1743.55 2204.94L1714.12 2173.79C1713.97 2173.65 1713.76 2173.56 1713.55 2173.56C1713.34 2173.56 1713.14 2173.65 1712.99 2173.79L1705.82 2180.99C1702.88 2183.97 1699.38 2186.34 1695.51 2187.96C1691.63 2189.58 1687.48 2190.41 1683.28 2190.41C1679 2190.39 1674.77 2189.52 1670.83 2187.86C1666.89 2186.2 1663.33 2183.77 1660.34 2180.72L1653.45 2173.72C1653.3 2173.58 1653.1 2173.49 1652.89 2173.49C1652.68 2173.49 1652.48 2173.58 1652.33 2173.72L1622.97 2204.8C1622.5 2205.27 1621.93 2205.64 1621.32 2205.9C1620.7 2206.15 1620.04 2206.28 1619.37 2206.28C1618.7 2206.28 1618.04 2206.15 1617.42 2205.9C1616.8 2205.64 1616.24 2205.27 1615.77 2204.8C1615.29 2204.33 1614.92 2203.77 1614.66 2203.16C1614.4 2202.55 1614.27 2201.89 1614.27 2201.22C1614.27 2200.56 1614.4 2199.9 1614.66 2199.29C1614.92 2198.67 1615.29 2198.12 1615.77 2197.65L1645.24 2166.46C1645.37 2166.31 1645.44 2166.11 1645.44 2165.91C1645.44 2165.71 1645.37 2165.52 1645.24 2165.37L1603.08 2122.74C1602.97 2122.63 1602.83 2122.56 1602.68 2122.53C1602.53 2122.5 1602.37 2122.51 1602.23 2122.57C1602.09 2122.63 1601.97 2122.73 1601.88 2122.86C1601.8 2122.98 1601.75 2123.13 1601.75 2123.29V2208.58C1601.76 2211.88 1603.09 2215.04 1605.43 2217.37C1607.78 2219.7 1610.96 2221.01 1614.28 2221.02H1752.15C1755.47 2221.01 1758.65 2219.7 1761 2217.37C1763.34 2215.04 1764.67 2211.88 1764.68 2208.58V2123.36C1764.68 2123.2 1764.64 2123.04 1764.56 2122.91C1764.47 2122.77 1764.34 2122.67 1764.2 2122.61C1764.05 2122.55 1763.88 2122.54 1763.73 2122.57C1763.57 2122.61 1763.43 2122.69 1763.33 2122.81V2122.81Z" fill="white"/>
<path id="Vector_4" d="M1683.85 2180.79C1686.7 2180.81 1689.53 2180.26 1692.17 2179.17C1694.81 2178.07 1697.21 2176.45 1699.21 2174.4L1760.54 2111.47C1758.36 2109.66 1755.63 2108.65 1752.8 2108.64H1615.01C1612.18 2108.65 1609.45 2109.65 1607.28 2111.47L1668.61 2174.4C1670.6 2176.44 1672.97 2178.05 1675.59 2179.15C1678.21 2180.25 1681.02 2180.8 1683.85 2180.79V2180.79Z" fill="white"/>
<path id="Vector_5" opacity="0.1" d="M1681.21 2024C1653.49 2023.99 1626.39 2032.28 1603.33 2047.82C1580.27 2063.37 1562.3 2085.47 1551.68 2111.33C1541.07 2137.2 1538.28 2165.66 1543.69 2193.12C1549.09 2220.58 1562.44 2245.8 1582.05 2265.6C1601.65 2285.4 1626.63 2298.88 1653.82 2304.33C1681.01 2309.79 1709.2 2306.98 1734.81 2296.26C1760.42 2285.54 1782.31 2267.39 1797.7 2244.11C1813.09 2220.82 1821.3 2193.45 1821.29 2165.45C1821.27 2127.94 1806.51 2091.98 1780.24 2065.45C1753.98 2038.93 1718.36 2024.02 1681.21 2024ZM1681.21 2288.11C1657.19 2288.11 1633.71 2280.92 1613.73 2267.44C1593.76 2253.96 1578.19 2234.81 1569 2212.39C1559.8 2189.98 1557.4 2165.32 1562.09 2141.52C1566.77 2117.73 1578.34 2095.87 1595.33 2078.72C1612.31 2061.57 1633.96 2049.88 1657.52 2045.15C1681.08 2040.42 1705.5 2042.85 1727.7 2052.13C1749.89 2061.42 1768.86 2077.14 1782.21 2097.31C1795.55 2117.48 1802.68 2141.19 1802.68 2165.45C1802.68 2197.99 1789.88 2229.18 1767.1 2252.19C1744.32 2275.19 1713.43 2288.11 1681.21 2288.11Z" fill="#3F3D56"/>
</g>
<g id="heart2">
<path id="Vector 2" d="M925.048 2374.64C920.336 2369.91 914.736 2366.15 908.568 2363.58C902.401 2361.01 895.786 2359.68 889.105 2359.67C882.424 2359.66 875.806 2360.97 869.631 2363.53C863.457 2366.08 857.846 2369.82 853.122 2374.55C848.397 2379.27 844.652 2384.88 842.099 2391.06C839.546 2397.23 838.237 2403.85 838.246 2410.53C838.255 2417.21 839.582 2423.82 842.151 2429.99C844.721 2436.16 848.482 2441.76 853.219 2446.47L925.048 2518.29L996.876 2446.47C1006.36 2436.94 1011.68 2424.03 1011.66 2410.58C1011.64 2397.14 1006.29 2384.25 996.784 2374.74C987.275 2365.23 974.383 2359.88 960.935 2359.86C947.487 2359.85 934.581 2365.16 925.048 2374.64Z" fill="#FF6584"/>
</g>
<g id="heart1">
<path id="Vector 3" d="M748.413 2181.2C743.702 2176.46 738.102 2172.7 731.934 2170.13C725.766 2167.57 719.152 2166.24 712.471 2166.23C705.789 2166.22 699.172 2167.53 692.997 2170.08C686.823 2172.63 681.212 2176.38 676.488 2181.1C671.763 2185.83 668.017 2191.44 665.465 2197.61C662.912 2203.79 661.603 2210.4 661.612 2217.09C661.621 2223.77 662.948 2230.38 665.517 2236.55C668.086 2242.71 671.848 2248.31 676.585 2253.03L748.413 2324.85L820.242 2253.03C829.726 2243.49 835.043 2230.59 835.026 2217.14C835.008 2203.69 829.658 2190.8 820.149 2181.29C810.64 2171.79 797.748 2166.44 784.301 2166.42C770.853 2166.4 757.947 2171.72 748.413 2181.2Z" fill="#FF6584"/>
</g>
<g id="instagram">
<path id="Vector 36" d="M1659.06 2179.13C1672.23 2179.13 1682.91 2168.45 1682.91 2155.27C1682.91 2142.1 1672.23 2131.42 1659.06 2131.42C1645.88 2131.42 1635.2 2142.1 1635.2 2155.27C1635.2 2168.45 1645.88 2179.13 1659.06 2179.13Z" fill="#3F3D56"/>
<path id="Vector 37" d="M1688.87 2095.63H1629.24C1621.34 2095.66 1613.77 2098.81 1608.18 2104.39C1602.59 2109.98 1599.44 2117.55 1599.42 2125.45V2185.09C1599.44 2192.99 1602.59 2200.56 1608.18 2206.15C1613.77 2211.74 1621.34 2214.89 1629.24 2214.91H1688.88C1696.78 2214.89 1704.35 2211.74 1709.93 2206.15C1715.52 2200.56 1718.67 2192.99 1718.69 2185.09V2125.45C1718.67 2117.55 1715.52 2109.98 1709.93 2104.39C1704.35 2098.81 1696.78 2095.66 1688.88 2095.63H1688.87ZM1659.06 2191.05C1651.98 2191.05 1645.06 2188.96 1639.18 2185.02C1633.29 2181.09 1628.71 2175.5 1626 2168.97C1623.29 2162.43 1622.58 2155.23 1623.96 2148.29C1625.34 2141.35 1628.75 2134.97 1633.75 2129.97C1638.76 2124.97 1645.13 2121.56 1652.08 2120.18C1659.02 2118.8 1666.21 2119.51 1672.75 2122.21C1679.29 2124.92 1684.88 2129.51 1688.81 2135.39C1692.74 2141.28 1694.84 2148.19 1694.84 2155.27C1694.84 2164.76 1691.07 2173.86 1684.36 2180.57C1677.65 2187.28 1668.55 2191.05 1659.06 2191.05ZM1697.82 2125.45C1696.05 2125.45 1694.32 2124.93 1692.85 2123.95C1691.38 2122.96 1690.23 2121.57 1689.56 2119.93C1688.88 2118.3 1688.7 2116.5 1689.05 2114.76C1689.39 2113.03 1690.24 2111.43 1691.49 2110.18C1692.75 2108.93 1694.34 2108.08 1696.08 2107.73C1697.81 2107.39 1699.61 2107.57 1701.24 2108.24C1702.88 2108.92 1704.28 2110.07 1705.26 2111.54C1706.24 2113.01 1706.77 2114.74 1706.77 2116.51C1706.77 2117.68 1706.54 2118.85 1706.09 2119.93C1705.64 2121.02 1704.98 2122.01 1704.15 2122.84C1703.32 2123.67 1702.33 2124.33 1701.25 2124.78C1700.16 2125.23 1699 2125.46 1697.82 2125.45Z" fill="#3F3D56"/>
<path id="Vector 38" d="M1657.53 2015C1629.53 2015 1602.17 2023.3 1578.9 2038.85C1555.62 2054.4 1537.48 2076.51 1526.77 2102.37C1516.06 2128.23 1513.26 2156.68 1518.72 2184.14C1524.18 2211.59 1537.66 2236.81 1557.45 2256.6C1577.24 2276.39 1602.46 2289.87 1629.91 2295.33C1657.37 2300.79 1685.82 2297.99 1711.68 2287.28C1737.54 2276.57 1759.65 2258.43 1775.2 2235.15C1790.75 2211.88 1799.05 2184.52 1799.05 2156.52C1799.05 2137.94 1795.39 2119.54 1788.28 2102.37C1781.16 2085.2 1770.74 2069.59 1757.6 2056.45C1744.46 2043.31 1728.85 2032.89 1711.68 2025.77C1694.51 2018.66 1676.11 2015 1657.53 2015ZM1730.62 2185.09C1730.59 2196.15 1726.18 2206.75 1718.36 2214.57C1710.54 2222.4 1699.94 2226.8 1688.87 2226.84H1629.24C1618.18 2226.8 1607.58 2222.4 1599.75 2214.57C1591.93 2206.75 1587.52 2196.15 1587.49 2185.09V2125.45C1587.52 2114.39 1591.93 2103.79 1599.75 2095.97C1607.58 2088.15 1618.18 2083.74 1629.24 2083.71H1688.88C1699.94 2083.74 1710.54 2088.15 1718.36 2095.97C1726.18 2103.79 1730.59 2114.39 1730.62 2125.45V2185.09Z" fill="#3F3D56"/>
</g>
<g id="facebook">
<path id="Vector 39" d="M1669.53 1984C1641.53 1984 1614.17 1992.3 1590.9 2007.85C1567.62 2023.4 1549.48 2045.51 1538.77 2071.37C1528.06 2097.23 1525.26 2125.68 1530.72 2153.14C1536.18 2180.59 1549.66 2205.81 1569.45 2225.6C1589.24 2245.39 1614.46 2258.87 1641.91 2264.33C1669.37 2269.79 1697.82 2266.99 1723.68 2256.28C1749.54 2245.57 1771.65 2227.43 1787.2 2204.15C1802.75 2180.88 1811.05 2153.52 1811.05 2125.52C1811.05 2106.94 1807.39 2088.54 1800.28 2071.37C1793.16 2054.2 1782.74 2038.59 1769.6 2025.45C1756.46 2012.31 1740.85 2001.89 1723.68 1994.77C1706.51 1987.66 1688.11 1984 1669.53 1984ZM1714.15 2069.64H1696.03C1683.66 2069.64 1681.3 2075.49 1681.3 2084.11V2102.43H1710.76L1706.91 2131.17H1681.3V2209.18H1648.46V2131.17H1624.9V2102.43H1648.46V2081.18C1648.46 2055.73 1666.11 2041.87 1688.85 2041.87C1699.73 2041.87 1711.43 2042.69 1714.15 2043.05V2069.64Z" fill="#3F3D56"/>
</g>
<g id="Group 8">
<g id="Group 7">
<g id="Group 5">
<path id="Vector 6" d="M3630.7 2815.26C3630.7 3308.17 2903.89 3707.73 2007.37 3707.73C1525.74 3707.73 1093.09 3592.43 795.828 3409.26C601.865 3289.78 465.506 3141.38 410.804 2977.38C393.15 2925.15 384.112 2870.39 384.044 2815.26C384.044 2322.39 1729.29 99.1306 2007.37 1922.84C2285.45 3746.54 3630.7 2322.39 3630.7 2815.26Z" fill="#6C63FF"/>
<path id="Vector 7" opacity="0.1" d="M2814.12 3138.92C2814.12 3320.91 2239.31 3468.48 1530.21 3468.48C1257.1 3468.48 1003.91 3446.59 795.828 3409.26C601.865 3289.78 465.505 3141.38 410.804 2977.38C630.937 2877.09 1049.76 2809.36 1530.21 2809.36C2239.31 2809.36 2814.12 2956.92 2814.12 3138.92Z" fill="black"/>
<path id="Vector 8" d="M1887.36 1261.74C1785.61 1089.82 1584.3 1081.81 1584.3 1081.81C1584.3 1081.81 1388.14 1056.73 1262.3 1318.56C1145.01 1562.6 983.138 1798.24 1236.24 1855.36L1281.96 1713.08L1310.27 1865.96C1346.31 1868.55 1382.46 1869.17 1418.57 1867.81C1689.62 1859.06 1947.76 1870.37 1939.45 1773.11C1928.4 1643.82 1985.26 1427.15 1887.36 1261.74Z" fill="#2F2E41"/>
<path id="Vector 9" d="M1221.79 2767.29C1218.02 2786.05 1215.22 2805.12 1208.81 2823.16C1202.44 2841.06 1192.61 2857.62 1186.79 2875.7C1168.23 2933.36 1193.96 2997.64 1235.05 3042.15C1270.68 3080.58 1316.67 3107.89 1367.48 3120.78C1404.55 3130.1 1443.09 3131.44 1481.29 3132.74C1587.06 3136.32 1695.56 3139.53 1795.79 3105.54C1827.45 3094.54 1858.04 3080.64 1887.16 3064.03C1896.35 3059.65 1904.45 3053.28 1910.87 3045.37C1918.51 3034.48 1919.49 3020.37 1919.42 3007.07C1919.2 2962.23 1910.11 2917.63 1912.27 2872.84C1913.46 2848.03 1918.11 2823.24 1915.82 2798.51C1910.64 2742.43 1866.1 2692.23 1811.02 2680.4C1782.59 2674.3 1753.1 2677.62 1724.15 2680.41C1649.01 2687.63 1573.55 2691 1498.07 2690.51C1420.94 2690.02 1344.29 2678.25 1267.55 2677.02C1244.86 2676.66 1245.32 2683.65 1238.09 2705.62C1231.44 2725.83 1225.99 2746.42 1221.79 2767.29Z" fill="#2F2E41"/>
<path id="Vector 10" d="M1440.67 1660.13C1436.96 1679.53 1432.95 1699.65 1421.29 1715.6C1407.87 1733.94 1386 1744.43 1371.56 1761.99C1349.83 1788.42 1348.59 1825.61 1348.5 1859.82C1348.42 1891.34 1349.06 1924.95 1366.63 1951.12C1378.04 1968.1 1395.4 1980 1412.36 1991.43C1478.28 2035.85 1549.51 2081.07 1628.99 2082.53C1661.92 2083.14 1697.23 2074.64 1718.9 2049.83C1728.25 2038.18 1735.61 2025.06 1740.66 2011C1760.98 1960.91 1773.3 1907.94 1777.17 1854.02C1778.98 1828.65 1778.8 1802.55 1770.22 1778.61C1760.56 1751.69 1741.04 1729.54 1728.14 1704.02C1712.89 1673.68 1707.31 1639.38 1712.16 1605.77C1712.8 1603.4 1712.6 1600.88 1711.59 1598.65C1710.53 1597.45 1709.21 1596.51 1707.73 1595.91C1706.24 1595.31 1704.64 1595.06 1703.05 1595.18L1545.46 1583.84C1530.78 1583.11 1516.17 1581.44 1501.7 1578.83C1493.21 1577.11 1470.77 1565.04 1462.67 1568.25C1447.68 1574.19 1443.74 1644.04 1440.67 1660.13Z" fill="#FBBEBE"/>
<path id="Vector 11" opacity="0.1" d="M1439.29 1665.7C1435.59 1685.11 1431.58 1705.22 1419.92 1721.17C1406.5 1739.52 1384.62 1750 1370.19 1767.56C1348.46 1793.99 1347.22 1831.18 1347.13 1865.4C1347.04 1896.91 1347.68 1930.53 1365.26 1956.69C1376.67 1973.67 1394.03 1985.58 1410.99 1997.01C1476.91 2041.43 1548.14 2086.64 1627.62 2088.11C1660.55 2088.72 1695.86 2080.21 1717.52 2055.41C1726.88 2043.76 1734.23 2030.64 1739.29 2016.58C1759.61 1966.49 1771.93 1913.51 1775.8 1859.59C1777.61 1834.23 1777.43 1808.12 1768.85 1784.18C1759.19 1757.27 1739.67 1735.12 1726.77 1709.6C1711.51 1679.25 1705.94 1644.96 1710.78 1611.34C1711.42 1608.97 1711.23 1606.46 1710.22 1604.22C1709.16 1603.02 1707.84 1602.09 1706.35 1601.49C1704.87 1600.89 1703.27 1600.64 1701.67 1600.76L1544.08 1589.41C1529.41 1588.68 1514.79 1587.01 1500.33 1584.41C1491.83 1582.68 1469.4 1570.62 1461.3 1573.83C1446.3 1579.76 1442.37 1649.61 1439.29 1665.7Z" fill="black"/>
<path id="Vector 12" d="M1591.37 1681.26C1719.06 1681.26 1822.57 1577.75 1822.57 1450.07C1822.57 1322.39 1719.06 1218.89 1591.37 1218.89C1463.68 1218.89 1360.17 1322.39 1360.17 1450.07C1360.17 1577.75 1463.68 1681.26 1591.37 1681.26Z" fill="#FBBEBE"/>
<path id="Vector 13" d="M1473.09 1967.87C1485.14 1980.47 1497.91 1992.94 1513.7 2000.32C1529.41 2007.66 1547.1 2009.49 1564.44 2009.98C1606.11 2011.15 1651.29 2003.51 1680.28 1973.55C1717.66 1934.93 1716.42 1872.64 1745.72 1827.59C1748.08 1823.5 1751.3 1819.98 1755.16 1817.26C1760.07 1814.59 1765.62 1813.31 1771.21 1813.57C1808.21 1813.23 1840.44 1837.22 1869.52 1860.09C1882.55 1870.33 1895.91 1880.94 1904.13 1895.33C1909.88 1906.55 1913.82 1918.61 1915.79 1931.06C1930.23 2001.52 1934.9 2073.55 1939.54 2145.32C1942.1 2184.96 1944.67 2224.64 1944.48 2264.36C1943.85 2395.23 1913.43 2523.91 1883.18 2651.23C1879.28 2667.64 1873.95 2685.98 1859.03 2693.83C1852.38 2696.82 1845.23 2698.57 1837.95 2698.98C1751.31 2709.15 1664.49 2719.34 1577.26 2720.68C1543.22 2721.21 1509.19 2720.38 1475.18 2718.21C1469.32 2718.13 1463.52 2717.12 1457.98 2715.21C1450.47 2711.61 1444.01 2706.12 1439.24 2699.29C1392.05 2639.84 1389.27 2557.65 1389.57 2481.75C1390.31 2296.19 1396.94 2110.77 1409.46 1925.5C1410.5 1910.21 1410.72 1891.64 1399.7 1879.61C1419.54 1911.37 1447.14 1940.75 1473.09 1967.87Z" fill="#D0CDE1"/>
<path id="Vector 14" d="M1424.12 1700.93C1416.31 1715.07 1358.74 1750.16 1347.63 1761.88C1285.53 1827.33 1172.19 1824.87 1115.4 1894.98C1095.41 1919.64 1085.03 1950.63 1077.4 1981.44C1066.6 2025.02 1060.83 2072.54 1078.92 2113.63C1096.33 2153.17 1132.97 2180.5 1157.85 2215.81C1185.17 2254.59 1197.45 2301.67 1209.22 2347.62C1217.91 2381.55 1226.67 2416.31 1223.29 2451.17C1219.44 2490.8 1200.26 2527.09 1188.93 2565.26C1177.61 2603.44 1175.66 2648.9 1201.84 2678.9C1221.08 2700.94 1251.25 2709.68 1280.09 2714.6C1316.9 2720.87 1354.31 2722.66 1391.61 2724.3C1424.58 2725.76 1460.92 2726.04 1486.26 2704.91C1506.26 2688.24 1514.95 2661.18 1516.08 2635.16C1517.2 2609.15 1511.79 2583.37 1508.4 2557.56C1504.88 2530.8 1503.53 2503.8 1502.4 2476.84C1497.33 2355.84 1496.64 2234.77 1500.33 2113.61C1501.1 2088.4 1502.03 2062.88 1496.65 2038.24C1489.58 2005.83 1472.06 1976.87 1457.45 1947.09C1428.44 1887.99 1414.72 1830.57 1419.2 1764.88C1423.63 1700.04 1451.91 1650.64 1424.12 1700.93Z" fill="#575A89"/>
<path id="Vector 15" d="M1748.79 1705.85C1760.68 1718.08 1801.1 1722.11 1816.23 1729.98C1830.12 1737.21 1845.5 1740.99 1860.56 1745.33C1915.75 1761.25 1968.24 1785.34 2016.3 1816.8C2026.28 1822.64 2035.11 1830.27 2042.34 1839.29C2050.81 1851.07 2053.88 1865.76 2056.75 1879.97C2064.16 1916.67 2071.6 1953.81 2069.94 1991.21C2068.17 2030.9 2056.21 2069.35 2044.35 2107.28L2000.02 2248.98C1966.93 2354.76 1933.63 2461.57 1924.32 2572.01C1919.17 2633.22 1921.46 2694.82 1931.14 2755.48C1932.12 2761.58 1932.94 2768.57 1928.91 2773.25C1925.99 2776.14 1922.15 2777.9 1918.05 2778.24C1896.66 2781.59 1875.95 2770.68 1856.57 2761.03C1797.32 2731.55 1734.09 2710.86 1668.88 2699.62C1694.36 2662.79 1714.02 2622.26 1727.17 2579.45C1734.64 2552.27 1740.52 2524.68 1744.79 2496.81L1765.41 2377.55C1772.97 2333.82 1780.54 2289.98 1783.1 2245.67C1784.66 2229.06 1783.69 2212.31 1780.23 2195.99C1776.28 2180.25 1768.43 2165.82 1761.39 2151.19C1727.41 2080.51 1711.46 1999.84 1724.84 1922.56C1730.69 1888.74 1742.06 1854.87 1737.32 1820.88C1732.76 1788.19 1737.5 1762.79 1729.11 1730.45C1694.68 1597.64 1726.41 1682.86 1748.79 1705.85Z" fill="#575A89"/>
<path id="Vector 16" d="M1114.81 2006.74C1099.32 2038.89 1073.41 2066.27 1064.6 2100.85C1061.17 2117.02 1059.7 2133.53 1060.22 2150.04C1060.01 2174.93 1059.87 2200.32 1067.52 2224.01C1072.44 2239.26 1080.44 2253.32 1086.21 2268.27C1094.25 2289.16 1097.83 2311.5 1096.72 2333.85C1095.17 2364.82 1084.65 2394.87 1083.82 2425.87C1082.53 2474.61 1105.08 2520.43 1127.08 2563.95C1132.61 2550.24 1141.08 2537.9 1151.88 2527.8C1162.69 2517.7 1175.57 2510.09 1189.62 2505.49C1203.68 2500.89 1218.57 2499.41 1233.25 2501.17C1247.93 2502.92 1262.06 2507.86 1274.63 2515.64C1280.43 2510.28 1281.05 2501.48 1281.28 2493.59C1282.91 2437.04 1284.48 2380.49 1285.99 2323.94C1288.37 2236.48 1290.64 2147.85 1270.52 2062.7C1261.43 2024.25 1247.3 1985.96 1221.38 1956.14C1207.74 1940.44 1161.42 1899.08 1139.02 1916.67C1128.95 1924.58 1131.3 1946.11 1129.71 1957.02C1127.3 1974.25 1122.27 1991.02 1114.81 2006.74Z" fill="#575A89"/>
<path id="Vector 17" d="M2074.47 1914.09C2081.79 1936.91 2082.23 1961.29 2082.38 1985.26C2082.68 2034.14 2082.03 2083.02 2080.44 2131.89C2079.62 2156.91 2078.5 2182.27 2070.91 2206.13C2065.91 2221.86 2058.19 2236.61 2053.02 2252.29C2037.53 2299.28 2045.99 2350.25 2047.32 2399.7C2048.26 2415.71 2046.89 2431.77 2043.26 2447.39C2035.09 2478.05 2013.13 2502.82 1997.8 2530.61C1983.24 2556.99 1974.46 2586.57 1957.07 2611.18C1939.68 2635.8 1909.58 2655.3 1880.41 2647.74C1858.31 2642.02 1842.6 2622.45 1831.73 2602.37C1808.03 2558.21 1799.92 2507.35 1808.72 2458.01C1819.63 2397.98 1854.89 2344.73 1867.61 2285.06C1885.07 2203.12 1858.53 2118.57 1859.32 2034.79C1858.96 2021.66 1860.74 2008.55 1864.6 1995.99C1871.27 1976.86 1885.59 1961.58 1898.83 1946.23C1915.37 1927.05 1930.73 1906.89 1944.83 1885.85C1954.31 1871.72 1967.18 1835.38 1983.98 1832.36C2021.48 1825.61 2065.16 1885.12 2074.47 1914.09Z" fill="#575A89"/>
<path id="Vector 18" d="M920.202 2730.84C899.463 2725.63 878.094 2723.36 856.722 2724.1C834.267 2725.34 812.333 2731.34 792.38 2741.72C772.426 2752.09 754.91 2766.59 740.995 2784.26C727.081 2801.93 717.087 2822.35 711.679 2844.18C706.27 2866.01 705.571 2888.74 709.628 2910.86C714.043 2934.93 723.962 2957.63 734.782 2979.59C751.617 3013.75 771.809 3047.83 802.975 3069.73C821.206 3082.53 842.307 3090.52 863.157 3098.37L1027.3 3160.2C1051.45 3169.3 1075.6 3178.4 1099.99 3186.83C1222.51 3229.18 1350.24 3254.57 1479.64 3262.3C1519.05 3264.65 1559.06 3265.3 1597.51 3256.33C1606.64 3254.2 1616.37 3251.03 1621.66 3243.29C1624.78 3237.84 1626.63 3231.75 1627.05 3225.47L1637.15 3154.77C1638.57 3144.81 1639.94 3134.33 1636.29 3124.96C1631.66 3113.08 1620.07 3105.6 1609.01 3099.25C1501.09 3037.27 1375.09 3003.08 1284.26 2918.02C1262.87 2898 1244.98 2866.25 1219 2852.65C1189.54 2837.23 1154.84 2828.42 1124.39 2814.21C1057.81 2783.14 992.356 2747.43 920.202 2730.84Z" fill="#2F2E41"/>
<path id="Vector 19" opacity="0.1" d="M1084.08 2826.17C1142.1 2844.34 1387.05 2970.29 1429.04 3014.26C1423.41 3016.29 1232.46 2909.29 1226.73 2907.57C1174.65 2891.94 1122.28 2876.2 1072.82 2853.33C1062.87 2848.73 1008.18 2827.1 1010.66 2814.55C1013.45 2800.38 1073.78 2822.94 1084.08 2826.17Z" fill="black"/>
<path id="Vector 20" d="M1807.9 3298.97C1811.19 3299.21 1814.46 3298.25 1817.1 3296.27C1818.25 3294.78 1819.1 3293.08 1819.6 3291.26C1820.09 3289.45 1820.22 3287.55 1819.97 3285.68C1819.88 3253.57 1819.79 3221.47 1819.7 3189.36C1792 3176.16 1761.01 3171.93 1730.6 3167.86L1588.69 3148.9C1591.95 3149.33 1566.5 3210.01 1570.4 3218.12C1577.28 3232.39 1629.84 3245.05 1644.67 3251.79C1696.24 3275.23 1749.82 3300.99 1807.9 3298.97Z" fill="#FBBEBE"/>
<path id="Vector 21" d="M1362.66 3189.02C1335.86 3193.29 1305.96 3197.06 1288.6 3217.92C1266.6 3244.37 1275.97 3283.79 1286.46 3316.56C1288.02 3323.19 1291.15 3329.34 1295.59 3334.51C1302.75 3341.57 1313.73 3342.61 1323.78 3343.25C1348.21 3344.79 1374.22 3346.01 1395.57 3334.02C1405.68 3328.34 1414.03 3320.05 1423.45 3313.29C1439.2 3302.82 1456.51 3294.9 1474.73 3289.85C1508.23 3279.31 1542.72 3272.21 1577.65 3268.64C1591.35 3267.25 1605.32 3266.35 1618.2 3261.5C1631.08 3256.64 1643.01 3247.02 1646.75 3233.77C1651.7 3216.27 1641.52 3198.42 1631.77 3183.07C1619.61 3163.95 1606.73 3143.81 1588.61 3129.73C1562.16 3109.19 1549.08 3124.96 1522.45 3138.1C1472.03 3162.98 1418.17 3180.15 1362.66 3189.02Z" fill="#FBBEBE"/>
<path id="Vector 22" d="M1292.63 3213.16L1122.5 3162.87C1101.81 3156.76 1080.76 3150.59 1059.19 3150.61C1037.61 3150.62 1015.04 3157.7 1001.04 3174.12C987.852 3189.6 984.076 3210.76 980.787 3230.83L973.751 3273.77C970.176 3295.59 966.594 3317.83 969.812 3339.71C973.03 3361.59 984.199 3383.44 1003.61 3394.03C1027.15 3406.88 1056.01 3400.6 1082.28 3395.23C1135.36 3384.38 1189.34 3378.59 1243.51 3377.94C1263.87 3377.7 1285.23 3377.95 1303.23 3368.42C1324.62 3357.08 1337.42 3333.11 1339.62 3309.01C1342.96 3272.33 1330.74 3224.42 1292.63 3213.16Z" fill="#2F2E41"/>
<path id="Vector 23" d="M1874.78 3169.34C1896.83 3165.47 1916.3 3152.94 1937.43 3145.54C1967.18 3135.13 1999.41 3135.13 2030.93 3135.24C2042.5 3135.28 2054.82 3135.54 2064.45 3141.96C2078.33 3151.2 2081.89 3169.69 2084.25 3186.2C2089 3219.4 2093.75 3252.6 2098.5 3285.81C2101.17 3304.54 2103.84 3323.78 2099.66 3342.23C2095.48 3360.69 2082.9 3378.49 2064.58 3383.25C2042.33 3389.03 2020.52 3374.82 1999.52 3365.49C1947.02 3342.15 1885.99 3348.12 1831.24 3330.68C1821.08 3327.44 1810.2 3322.49 1806.06 3312.67C1804.19 3307.14 1803.52 3301.27 1804.1 3295.46C1805.04 3263.44 1798.28 3219.72 1807.92 3189.13C1816.59 3161.61 1850.16 3169.34 1874.78 3169.34Z" fill="#2F2E41"/>
<path id="Vector 24" d="M2234.82 2690.75C2268.81 2682.23 2304.05 2679.82 2338.89 2683.64C2366.71 2686.71 2395.38 2694.45 2415.69 2713.71C2440.42 2737.14 2448.36 2773.39 2449.03 2807.45C2450.11 2875.29 2427.61 2941.41 2385.36 2994.5C2375.05 3007.93 2362.78 3019.74 2348.97 3029.54C2334.07 3038.86 2318.19 3046.51 2301.61 3052.36L1934.01 3197.34C1837.3 3235.48 1740.26 3273.73 1639.38 3298.88C1636.63 3300.21 1633.63 3300.97 1630.57 3301.13C1627.51 3301.29 1624.45 3300.83 1621.58 3299.78C1618.7 3298.74 1616.06 3297.13 1613.81 3295.05C1611.56 3292.97 1609.75 3290.46 1608.49 3287.67C1576.28 3241.67 1549.26 3192.25 1527.92 3140.31C1526.91 3139.07 1526.21 3137.61 1525.88 3136.05C1525.56 3134.49 1525.61 3132.87 1526.04 3131.34C1526.47 3129.8 1527.27 3128.39 1528.36 3127.23C1529.45 3126.06 1530.8 3125.18 1532.31 3124.65L1792.31 2975.27C1810.94 2964.57 1829.77 2953.71 1845.24 2938.81C1856.47 2927.92 1865.67 2915.11 1872.41 2900.98C1877.79 2889.73 1878.3 2863.16 1885.18 2854.84C1891.92 2846.7 1914.98 2846.05 1925.63 2842.84C1940.65 2838.24 1955.35 2832.69 1969.66 2826.2C2027.82 2800.18 2079.61 2762.38 2135.37 2731.92C2166.64 2714.04 2200.06 2700.21 2234.82 2690.75Z" fill="#2F2E41"/>
<path id="Vector 25" opacity="0.1" d="M2087.42 2802.31C2042.75 2835.86 1984.91 2866.7 1940.63 2901.13C1925.52 2912.88 1673.64 3054.48 1670.08 3073.29C1711.38 3080.25 1974.49 2896.19 2012.14 2877.83C2049.78 2859.46 2083.15 2833.56 2116.22 2807.86C2124.65 2801.3 2160.36 2781.61 2136.17 2774.29C2122.54 2770.17 2097.48 2795.6 2087.42 2802.31Z" fill="black"/>
<path id="Vector 26" d="M1780.05 1709.1H1387.93C1372 1709.1 1356.73 1715.43 1345.46 1726.69C1334.2 1737.96 1327.87 1753.23 1327.87 1769.16V1791.16H1323.61V1840.35H1327.87V1874.78H1323.61V1904.29H1327.87V2267.23C1327.87 2283.16 1334.2 2298.44 1345.46 2309.7C1356.73 2320.97 1372 2327.29 1387.93 2327.29H1780.05C1795.98 2327.29 1811.26 2320.97 1822.53 2309.7C1833.79 2298.44 1840.12 2283.16 1840.12 2267.23V1769.16C1840.12 1753.23 1833.79 1737.96 1822.53 1726.69C1811.26 1715.43 1795.98 1709.1 1780.05 1709.1Z" fill="#3F3D56"/>
<path id="Vector 27" d="M1842.37 1245.16L1643.49 1141L1368.85 1183.61L1312.02 1434.56L1453.48 1429.12L1492.99 1336.92V1427.6L1558.26 1425.09L1596.14 1278.31L1619.81 1434.56L1851.84 1429.83L1842.37 1245.16Z" fill="#2F2E41"/>
<path id="Vector 28" d="M1166.84 2658.25C1176.67 2672.92 1188.18 2687.26 1203.96 2695.18C1223.69 2705.07 1248.03 2703.3 1267.78 2693.47C1287.36 2682.97 1303.39 2666.9 1313.83 2647.3C1335.45 2609.13 1339.92 2563.46 1337.23 2519.69C1334.53 2475.91 1325.18 2432.8 1321.04 2389.14C1318.04 2357.4 1317.79 2325.47 1317.55 2293.58C1317.5 2286.88 1317.61 2279.67 1321.57 2274.26C1326.35 2267.72 1335.12 2265.92 1342.89 2263.61C1386.51 2250.65 1415.46 2209.77 1436.22 2169.27C1450.09 2142.24 1462.14 2112.68 1459.47 2082.41C1456.79 2052.14 1435.04 2021.65 1404.81 2018.57C1379.88 2016.02 1356.87 2031.85 1338.9 2049.29C1293.55 2093.58 1264.4 2151.82 1256.14 2214.67C1252.2 2245.44 1253.33 2277.05 1244.96 2306.93C1227.08 2370.72 1171.16 2409.83 1143.29 2467.23C1112.58 2530.48 1129.53 2602.29 1166.84 2658.25Z" fill="#FBBEBE"/>
<path id="Vector 29" d="M1989.79 2414.54C1983.43 2429.33 1974.17 2442.71 1962.55 2453.86C1950.94 2465.02 1937.21 2473.74 1922.17 2479.5C1903.48 2487.01 1882.87 2488.27 1863.4 2483.1C1853.74 2480.42 1844.84 2475.56 1837.37 2468.88C1829.9 2462.2 1824.08 2453.89 1820.34 2444.59C1817.36 2435.23 1815.73 2425.49 1815.49 2415.67C1812.7 2372.65 1813.78 2328.32 1829.4 2288.14C1835.43 2272.64 1843.56 2257.95 1848.31 2242.02C1853.74 2223.84 1854.61 2204.67 1855.43 2185.72L1860.57 2068.35C1861.42 2059.83 1860.83 2051.23 1858.83 2042.9C1853.7 2025.92 1837.83 2014.88 1823.26 2004.75C1788.09 1980.29 1753.33 1951.75 1736.28 1912.44C1731.07 1900.42 1727.63 1887.05 1730.27 1874.21C1735.08 1850.9 1758.6 1835.81 1781.85 1830.73C1797.07 1827.4 1812.79 1827.19 1828.09 1830.1C1843.39 1833.02 1857.94 1839 1870.86 1847.68C1883.78 1856.37 1894.81 1867.58 1903.29 1880.65C1911.76 1893.71 1917.51 1908.35 1920.17 1923.69C1922.47 1936.94 1922.44 1950.47 1923.79 1963.85C1926.64 1992.22 1935.65 2019.57 1941.29 2047.53C1955.17 2116.39 1947.97 2187.57 1961.7 2256.42C1973.18 2313.99 2016.46 2351.55 1989.79 2414.54Z" fill="#FBBEBE"/>
<path id="Vector 30" d="M1589.24 1973.16C1616.41 1973.16 1638.43 1951.13 1638.43 1923.97C1638.43 1896.8 1616.41 1874.78 1589.24 1874.78C1562.07 1874.78 1540.05 1896.8 1540.05 1923.97C1540.05 1951.13 1562.07 1973.16 1589.24 1973.16Z" fill="#D0CDE1"/>
</g>
<g id="Group 6">
<path id="Vector 31" d="M3078.3 3711.67H2764.69C2759.67 3711.67 2754.86 3709.68 2751.31 3706.13C2747.76 3702.58 2745.77 3697.76 2745.77 3692.75V3301.65H3097.23V3692.75C3097.23 3697.76 3095.23 3702.58 3091.68 3706.13C3088.14 3709.68 3083.32 3711.67 3078.3 3711.67Z" fill="url(#paint0_linear)"/>
<path id="Vector 32" d="M2751.4 3608.05C2693.66 3608.05 2646.64 3548.42 2646.64 3475.16C2646.64 3401.91 2693.62 3342.28 2751.4 3342.28C2809.19 3342.28 2856.16 3401.91 2856.16 3475.16C2856.16 3548.42 2809.19 3608.05 2751.4 3608.05ZM2751.4 3366.42C2706.49 3366.42 2669.94 3415.2 2669.94 3475.16C2669.94 3535.13 2706.49 3583.91 2751.4 3583.91C2796.32 3583.91 2832.87 3535.13 2832.87 3475.16C2832.87 3415.2 2796.36 3366.42 2751.4 3366.42Z" fill="url(#paint1_linear)"/>
<path id="Vector 33" d="M2754.81 3596.78C2698.92 3596.78 2653.41 3541.19 2653.41 3472.89C2653.41 3404.6 2698.88 3349.01 2754.81 3349.01C2810.74 3349.01 2856.21 3404.6 2856.21 3472.89C2856.21 3541.19 2810.7 3596.78 2754.81 3596.78ZM2754.81 3371.5C2711.32 3371.5 2675.96 3416.96 2675.96 3472.89C2675.96 3528.82 2711.32 3574.28 2754.81 3574.28C2798.3 3574.28 2833.54 3528.78 2833.54 3472.89C2833.54 3417.01 2798.3 3371.42 2754.81 3371.42V3371.5Z" fill="black"/>
<path id="Vector 34" d="M2753.63 3306.2H3089.45V3679.25C3089.45 3684.27 3087.45 3689.08 3083.9 3692.63C3080.36 3696.18 3075.54 3698.17 3070.52 3698.17H2772.52C2767.5 3698.17 2762.68 3696.18 2759.13 3692.63C2755.58 3689.08 2753.59 3684.27 2753.59 3679.25V3306.2H2753.63Z" fill="black"/>
</g>
</g>
</g>
</g>
<defs>
<linearGradient id="paint0_linear" x1="99720.5" y1="308316" x2="99720.5" y2="268343" gradientUnits="userSpaceOnUse">
<stop stop-color="#808080" stop-opacity="0.25"/>
<stop offset="0.54" stop-color="#808080" stop-opacity="0.12"/>
<stop offset="1" stop-color="#808080" stop-opacity="0.1"/>
</linearGradient>
<linearGradient id="paint1_linear" x1="51982.7" y1="194505" x2="51982.7" y2="177706" gradientUnits="userSpaceOnUse">
<stop stop-color="#808080" stop-opacity="0.25"/>
<stop offset="0.54" stop-color="#808080" stop-opacity="0.12"/>
<stop offset="1" stop-color="#808080" stop-opacity="0.1"/>
</linearGradient>
</defs>
</svg>
