<svg width="1474" height="200" viewBox="0 0 1474 200" fill="none" xmlns="http://www.w3.org/2000/svg">
<path d="M31.5907 131.496C31.5907 131.503 31.5907 131.516 31.5907 131.522C31.5907 132.369 31.82 133.191 32.1933 133.942C28.3339 134 24.4719 133.891 20.6055 133.484C19.6227 133.337 18.6526 133.165 17.6895 132.981C22.3151 132.439 26.9529 131.961 31.5907 131.496V131.496ZM123.571 134.248C124.188 134.407 124.8 134.567 125.422 134.713C121.344 134.777 117.269 134.847 113.191 134.917C116.651 134.694 120.11 134.471 123.571 134.248V134.248ZM226.93 127.624C263.168 125.159 299.415 122.662 335.65 120.177C358.395 118.623 381.139 116.897 403.911 115.649C444.361 113.426 484.811 111.196 525.258 108.979C546.349 107.827 567.432 106.533 588.535 105.667C620.855 104.342 653.169 103.005 685.489 101.667C718.7 102.138 751.912 102.635 785.13 103.151C805.252 103.451 825.38 103.877 845.509 104.03C870.625 104.221 895.747 104.419 920.863 104.616C887.434 106.215 854.006 107.814 820.578 109.419C759.709 112.324 698.827 114.903 637.945 117.591C576.242 120.318 514.538 122.776 452.831 125.324C431.537 126.21 410.243 126.929 388.947 127.706C377.106 128.14 365.265 128.573 353.421 128.999C345.571 128.993 337.721 128.968 329.871 128.961C322.65 128.961 315.434 128.802 308.218 128.713C289.582 128.503 270.955 128.273 252.319 128.057C243.332 127.942 234.347 127.834 225.357 127.726C225.882 127.694 226.41 127.662 226.93 127.624V127.624ZM428.92 87.2524C445.827 86.3542 462.738 85.437 479.645 84.5325C498.665 83.507 517.698 82.3222 536.737 81.5324C559.515 80.5897 582.299 79.6469 605.077 78.7042C633.779 77.8634 662.481 77.0226 691.183 76.1818C674.94 77.4685 658.698 78.7551 642.455 80.0354C624.187 81.4814 605.899 82.7744 587.656 84.4369C579.707 85.1631 571.764 85.8893 563.821 86.6154C563.292 86.609 562.77 86.609 562.247 86.6026C545.514 86.5071 528.768 86.4052 512.029 86.3097C506.703 86.2651 501.372 86.144 496.053 86.2459C470.708 86.7364 445.369 87.2205 420.022 87.7173C422.99 87.5645 425.956 87.418 428.92 87.2524ZM362.112 47.5754C338.868 47.2951 315.618 47.0149 292.369 46.7346C303.247 45.69 314.123 44.6453 324.996 43.6007C363.538 39.9062 402.077 36.199 440.616 32.4982C445.252 32.046 449.888 31.6065 454.532 31.1606C474.81 32.097 495.085 33.0461 515.366 33.9824C525.481 34.4474 535.552 35.0143 545.648 35.7277C608.657 40.1547 671.666 44.5625 734.669 48.9831C737.816 49.206 740.963 49.4354 744.109 49.6774C717.649 49.6137 691.183 49.5564 664.73 49.499C615.728 49.378 566.725 48.9703 517.729 48.6582C465.861 48.3206 413.993 48.1996 362.112 47.5754ZM704.885 18.5295C710.082 18.2683 715.305 18.3129 720.516 18.2619C738.453 18.0708 756.396 17.8797 774.334 17.6823C814.119 17.2619 853.904 16.8351 893.689 16.4083C898.97 16.3574 904.231 16.3192 909.505 16.4274C925.665 16.7778 941.832 17.1217 957.992 17.4657C997.478 18.3001 1036.98 19.1346 1076.47 19.9818C1082.69 20.1156 1088.9 20.3385 1095.11 20.5869C1115.06 21.3767 1135.01 22.1729 1154.97 22.9692C1182.5 24.0584 1210.04 25.0202 1237.56 26.4343C1268.88 28.0395 1300.22 29.358 1331.51 31.4409C1342.02 32.1416 1352.54 32.8295 1363.05 33.5301C1369.09 33.9314 1375.16 34.2308 1381.18 34.7404C1382.57 34.855 1383.95 34.9697 1385.33 35.0907C1375.69 35.5303 1366.05 35.957 1356.41 36.422C1355.16 36.2245 1353.91 36.0398 1352.66 35.9188C1350.35 35.6767 1348.08 35.6321 1345.76 35.6194C1345.7 35.6194 1345.65 35.6194 1345.58 35.6194C1340.88 35.6194 1336.18 35.9953 1331.5 36.3074C1330.34 36.3902 1329.17 36.4411 1328.01 36.5112C1325.82 33.7276 1322.49 31.8676 1318.75 31.9313C1298.97 32.2371 1279.19 32.3263 1259.42 33.1862C1242.65 33.9124 1225.9 34.6448 1209.14 35.371C1186.54 36.3519 1163.94 37.2819 1141.32 38.2055C1116.55 39.212 1091.78 40.2438 1067 41.2948C1060.21 41.5751 1053.42 41.8681 1046.63 42.1611C1030.83 42.1102 1015.03 42.0592 999.223 42.0146C983.923 41.9573 968.629 41.9063 953.335 41.8554C948.705 41.8363 944.093 41.9 939.462 41.7089C911.779 40.5432 884.097 39.3966 856.407 38.2437C828.979 37.0972 801.558 35.9697 774.136 34.8168C771.047 34.6767 767.977 34.4601 764.894 34.2627C754.549 33.562 744.205 32.8677 733.854 32.1671C690.839 29.2688 647.831 26.377 604.816 23.4851C638.174 21.8354 671.526 20.1983 704.885 18.5295V18.5295ZM1110.75 70.672C1082.97 71.6465 1055.2 72.9014 1027.43 74.048C962.597 76.6978 897.772 79.545 832.948 82.4305C809.832 83.456 786.716 84.3987 763.594 85.5261C749.116 86.2268 734.637 86.9466 720.159 87.6537C712.707 87.59 705.248 87.5326 697.795 87.4817C735.389 84.5834 772.99 81.698 810.59 78.8125C817.75 78.2647 824.941 77.959 832.101 77.5513C851.624 76.4048 871.153 75.2646 890.676 74.1244C910.384 72.9715 930.086 71.8249 949.8 70.672C966.183 70.3662 982.572 70.035 998.955 69.6337C1035.96 68.7037 1072.98 67.7865 1109.99 66.8629C1129.48 66.3788 1148.97 65.9966 1168.45 65.2896C1179.57 64.8947 1190.68 64.487 1201.81 64.0857C1203.14 65.4616 1204.84 66.5763 1206.64 66.9393C1207.14 67.0412 1207.65 67.1495 1208.14 67.2514C1175.68 68.3853 1143.21 69.5318 1110.75 70.672V70.672ZM891.498 117.356C847.509 121.076 803.526 124.815 759.543 128.547C751.504 128.56 743.46 128.573 735.427 128.598C709.273 128.681 683.126 128.878 656.972 128.878C637.754 128.878 618.53 128.917 599.306 128.955C606.721 128.675 614.141 128.394 621.556 128.114C679.96 125.936 738.364 123.566 796.78 121.305C825.635 120.177 854.49 118.884 883.345 117.687C886.071 117.572 888.785 117.47 891.511 117.356C891.505 117.356 891.505 117.356 891.498 117.356V117.356ZM0.137702 139.618C-0.315185 141.229 0.359361 143.491 2.00912 144.223C2.77794 144.567 3.56396 144.911 4.35062 145.242C4.82071 145.401 5.28124 145.58 5.75133 145.745C6.70424 145.879 7.65206 145.994 8.60242 146.115C9.59801 146.249 10.7898 145.605 11.4713 144.924C11.551 144.841 11.628 144.758 11.7006 144.669C91.6279 143.542 171.553 142.37 251.491 141.191C256.997 141.102 262.506 140.911 268.014 140.726C285.855 140.121 303.695 139.516 321.522 138.924C324.449 138.828 327.372 138.726 330.298 138.63C335.546 138.688 340.793 138.694 346.038 138.713C363.112 138.809 380.184 138.898 397.248 138.987C428.128 139.153 459.009 139.306 489.887 139.484C534.985 139.739 580.083 139.828 625.18 139.943C606.823 141.51 588.465 143.096 570.114 144.72C559.426 145.663 548.744 146.612 538.055 147.561C520.73 147.688 503.404 147.803 486.078 147.937C469.53 148.045 452.997 148.039 436.454 148.026C429.111 148.019 421.751 148.019 414.411 148.019C406.58 148.026 398.748 148.026 390.917 148.026C373.03 148.026 355.133 148.026 337.243 148.096C318.838 148.172 300.43 148.255 282.028 148.325C267.611 148.395 253.2 148.395 238.784 148.555C222.259 148.752 205.736 149.058 189.209 149.3C187.664 149.319 186.37 150.561 186.37 152.128C186.37 153.739 187.664 154.892 189.209 154.969C192.165 155.122 195.124 155.37 198.087 155.351C199.901 155.345 201.712 155.332 203.539 155.326C209.843 155.294 216.139 155.255 222.443 155.217C228.853 155.185 235.253 155.141 241.665 155.077C262.717 154.861 283.767 154.638 304.822 154.408C309.574 154.408 314.327 154.408 319.079 154.408C342.495 154.402 365.902 154.478 389.305 154.548C411.801 154.618 434.296 154.714 456.787 154.771C420.348 158.001 383.913 161.237 347.476 164.466C283.63 170.116 219.796 175.925 155.959 181.747C153.484 181.97 151.384 182.582 149.578 184.384C147.888 186.079 146.93 188.391 146.93 190.779C146.93 193.168 147.888 195.487 149.578 197.162C151.132 198.722 153.685 200.022 155.959 199.805C230.908 192.99 305.854 186.25 380.816 179.645C450.246 173.524 519.666 167.377 589.089 161.275C620.715 158.504 652.36 155.899 684.005 153.287C703.254 152.771 722.503 152.249 741.752 151.72C758.906 151.262 776.041 150.803 793.194 150.344C798.43 150.198 803.672 150.083 808.908 149.809C843.611 148.007 878.319 146.185 913.021 144.382C930.111 143.497 947.214 142.605 964.304 141.713C969.68 141.433 975.043 141.178 980.419 140.841C988.853 140.306 997.293 139.777 1005.73 139.242C1019.27 139.025 1032.82 138.815 1046.36 138.611C1068.07 138.261 1089.79 137.923 1111.51 137.388C1167.63 136 1223.76 134.624 1279.89 133.611C1285.99 133.496 1292.1 133.465 1298.17 134.006C1301.56 134.567 1304.83 135.433 1308.1 136.579C1310.15 137.274 1312.69 136.796 1314.51 135.732C1316.36 134.643 1317.76 132.84 1318.33 130.764C1318.92 128.63 1318.61 126.286 1317.49 124.369C1316.32 122.369 1314.63 121.337 1312.52 120.547C1311.5 120.158 1310.48 119.802 1309.45 119.464C1345.43 117.133 1381.41 114.84 1417.38 112.572C1423.38 112.196 1429.39 111.973 1435.38 111.712C1440.98 111.476 1446.55 111.094 1452.11 110.489C1454.33 110.247 1456.54 109.909 1458.73 109.565C1461.9 109.069 1465.03 108.209 1468.16 107.54C1469.93 107.158 1471.56 105.769 1472.45 104.228C1473.49 102.463 1473.56 100.654 1473.19 98.6924C1472.77 96.5521 1471.47 95.0043 1470.17 93.3482C1469.94 93.0488 1469.71 92.7431 1469.47 92.4373C1468.57 91.5328 1467.51 90.9213 1466.28 90.5773C1465.65 90.4054 1465.01 90.3162 1464.37 90.3162C1463.08 90.3162 1461.81 90.6538 1460.7 91.3035C1459.17 92.2016 1458 93.6475 1457.46 95.3355C1457.41 95.3482 1457.36 95.361 1457.31 95.3738C1455.3 95.8642 1453.27 96.2081 1451.23 96.5075C1439.1 97.9534 1426.89 98.2847 1414.71 99.2274C1405.81 99.9217 1396.92 100.61 1388.01 101.31C1376.83 102.189 1365.65 103.062 1354.46 103.915C1325.68 106.132 1296.9 108.368 1268.12 110.527C1214.17 114.572 1160.24 118.782 1106.27 122.56C1099.78 123.018 1093.28 123.471 1086.79 123.923C1079.68 124.133 1072.56 124.254 1065.45 124.42C1050.34 124.776 1035.24 125.139 1020.13 125.496C1038.88 123.986 1057.63 122.483 1076.37 120.954C1095.22 119.419 1114.08 117.954 1132.94 116.483C1161.85 114.228 1190.77 111.82 1219.7 109.718C1246.97 107.731 1274.24 105.68 1301.5 103.686C1314.63 102.743 1327.77 101.814 1340.9 100.877C1347.7 100.399 1354.5 99.8835 1361.32 99.495C1365.86 99.2402 1370.4 98.9471 1374.93 98.5267C1379.28 98.1127 1383.58 97.3675 1387.9 96.7814C1389.64 96.5394 1391.34 96.2591 1393.05 95.8897C1395.01 95.4565 1396.81 94.4948 1398.62 93.7113C1400.8 92.7749 1402.33 90.9468 1403.7 89.125C1404.64 87.8893 1405.12 86.6408 1405.74 85.2076C1406.08 84.3923 1406.42 83.577 1406.76 82.7617C1406.81 82.5642 1406.84 82.3667 1406.88 82.1756C1411.04 80.6087 1414.07 76.5002 1414.07 71.914C1414.07 65.8501 1409.1 61.0919 1403.12 60.9645C1395.06 60.8053 1387 60.7161 1378.94 60.697C1377.03 60.6906 1375.22 61.2066 1373.64 62.0856C1368.63 62.2512 1363.61 62.3977 1358.6 62.5506C1349.97 62.8117 1341.35 63.0729 1332.72 63.3404C1336.82 62.7035 1340.93 62.041 1345.04 61.3976C1356.84 61.1811 1368.63 60.9454 1380.43 60.6397C1383.78 60.5505 1386.77 58.9135 1388.64 56.4102C1388.95 56.4293 1389.25 56.4356 1389.55 56.4675C1391.2 56.7286 1392.81 57.0471 1394.44 57.4293C1397.94 58.2319 1401.52 56.6331 1402.98 53.4101C1405.46 53.3081 1407.94 53.1998 1410.42 53.0342C1413.01 52.8495 1415.28 52.1106 1417.15 50.2442C1418.94 48.4607 1419.95 46.0211 1419.95 43.4924C1419.95 41.454 1419.2 39.4795 1418 37.8552C1418.18 37.8615 1418.36 37.8807 1418.53 37.8934C1425.47 38.4794 1432.43 38.7278 1439.34 39.5113C1443.41 40.1737 1447.52 40.9381 1451.41 42.2885C1451.62 42.9828 1451.8 43.6835 1451.95 44.3969C1451.98 44.7982 1452 45.2059 1452.03 45.6135C1452.18 47.9448 1452.86 50.0022 1454.55 51.6838C1456.15 53.2953 1458.36 54.2126 1460.62 54.2126C1462.89 54.2126 1465.1 53.2953 1466.7 51.6838C1468.17 50.2188 1469.44 47.7729 1469.22 45.6135C1469.01 43.5115 1468.74 41.4477 1468.38 39.3775C1468.02 37.3902 1466.93 35.4538 1466.14 33.6129C1465.77 33.1288 1465.4 32.6384 1465.03 32.1479C1464.28 30.8867 1463.26 29.8803 1462 29.1159C1460.44 27.9758 1458.89 27.1604 1457.07 26.4853C1453.34 25.1094 1449.43 24.4533 1445.53 23.7081C1439.7 22.5806 1433.7 22.3194 1427.8 22.0073C1418.48 21.5169 1409.18 20.6506 1399.88 19.9054C1385.41 18.7524 1370.95 17.746 1356.46 16.816C1342.96 15.9433 1329.47 14.937 1315.96 14.249C1296.75 13.2617 1277.51 12.2872 1258.29 11.3062C1245.9 10.6756 1233.51 9.90484 1221.12 9.408C1206.75 8.8411 1192.38 8.2551 1178.01 7.67546C1155.94 6.79643 1133.87 5.91102 1111.79 5.01926C1102.3 4.64981 1092.81 4.10208 1083.31 3.8855C1049.1 3.14662 1014.91 2.40774 980.706 1.66248C960.992 1.23571 941.271 0.808937 921.557 0.388535C915.659 0.254771 909.735 -8.03562e-06 903.817 -8.03562e-06C903.167 -8.03562e-06 902.518 0.00629637 901.868 0.0126661C837.171 0.668747 772.448 1.23571 707.751 1.98734C705.725 2.00645 703.693 2.17841 701.674 2.2867C696.139 2.55423 690.616 2.82177 685.075 3.09567C666.698 4.00017 648.321 4.9046 629.951 5.81547C586.497 7.94296 543.049 10.096 499.595 12.2298C487.397 12.8349 475.212 13.4273 463.015 14.0324C459.295 14.2171 455.61 14.5866 451.898 14.9433C442.269 14.5038 432.636 14.0706 423.005 13.6375C391.04 12.1852 359.071 10.7393 327.116 9.29977C319.383 8.94943 311.657 8.59909 303.931 8.25512C295.715 7.87931 287.485 7.73281 279.256 7.54809C261.562 7.12769 243.867 6.87926 226.171 6.49707C226.116 6.49707 226.064 6.49707 226.012 6.49707C221.752 6.49707 218.236 10.2297 218.236 14.4337C218.236 18.8288 221.844 22.2749 226.171 22.3704C243.867 22.759 261.562 23.0392 279.256 23.4469C287.485 23.638 295.715 23.7845 303.931 24.173C311.657 24.5297 319.383 24.88 327.116 25.2495C331.052 25.4278 334.989 25.619 338.927 25.7974C298.893 29.6383 258.858 33.4983 218.823 37.3393C205.934 38.5814 193.046 39.8171 180.159 41.0528C168.515 42.1739 156.893 43.4988 145.278 44.9065C128.642 44.6453 112.008 44.3459 95.3777 44.072C91.5406 44.002 88.3462 47.3142 88.3462 51.0978C88.3462 51.4036 88.3984 51.6965 88.4354 51.9959C81.8644 52.8176 75.2934 53.6585 68.7141 54.4611C67.9879 54.5566 67.256 54.6521 66.5274 54.7477C65.1241 55.1426 63.9145 55.856 62.8896 56.8688C61.3545 58.4039 60.4812 60.5186 60.4812 62.6843C60.4812 64.8628 61.3545 66.9775 62.8896 68.5126C64.2827 69.8949 66.679 71.1688 68.7141 70.9204C91.1228 68.1814 113.501 65.2832 135.908 62.5378C145.188 61.3913 154.479 60.2129 163.778 59.181C218.009 60.0027 272.244 60.7479 326.481 61.4741C373.321 62.0919 420.161 62.5187 467.001 62.9264C473.454 62.9901 479.912 63.0538 486.365 63.1111C437.635 65.4488 388.907 67.7865 340.176 70.1178C310.351 71.551 280.525 72.9778 250.699 74.411C209.271 76.392 167.87 79.0227 126.452 81.4113C123.778 81.5706 121.394 82.3859 119.458 84.3096C117.617 86.1632 116.56 88.6983 116.56 91.3099C116.56 96.4757 121.071 101.52 126.452 101.202C160.605 99.2401 194.755 97.1445 228.915 95.3483C201.016 97.2464 173.118 99.1383 145.226 101.036C125.323 102.387 105.564 105.088 85.7556 107.317C84.0664 107.495 82.6752 107.865 81.4287 109.1C80.2847 110.241 79.635 111.814 79.635 113.426C79.635 115.05 80.2847 116.61 81.4287 117.751C82.4638 118.795 84.2307 119.712 85.7556 119.553C105.743 117.324 125.696 114.636 145.773 113.279C160.762 112.285 175.743 111.298 190.722 110.298C226.651 107.909 262.57 105.54 298.5 103.138C303.259 102.826 308.007 102.419 312.779 102.342C324.747 102.157 336.713 101.96 348.681 101.775C368.442 101.463 388.208 101.145 407.974 100.833C393.542 102.151 379.114 103.463 364.682 104.782C349.28 106.183 333.889 107.718 318.447 108.757C289.657 110.687 260.873 112.636 232.088 114.572C231.538 113.037 230.107 111.789 228.428 111.789C228.358 111.789 228.291 111.795 228.221 111.795C189.167 114.12 150.117 116.489 111.078 119.005C109.573 119.095 108.239 119.744 107.46 121.076C107.124 121.649 106.987 122.311 106.955 122.993C106.547 123.018 106.136 123.037 105.729 123.057C105.843 122.713 105.923 122.343 105.923 121.948C105.923 120.095 104.28 118.19 102.322 118.33C86.3155 119.528 70.3294 120.834 54.3376 122.107C37.5751 123.451 20.8667 125.343 4.18119 127.337C2.85502 127.49 1.74286 127.929 1.03391 129.146C0.15043 130.637 0.530713 132.293 1.59828 133.554C2.5015 134.611 3.29771 135.764 4.43024 136.592C4.44489 136.599 4.46209 136.611 4.47993 136.624C4.34298 136.624 4.20095 136.624 4.06145 136.63C2.24799 136.656 0.615431 137.853 0.137702 139.618" fill="#3E45EE"/>
</svg>
