<svg width="367" height="36" viewBox="0 0 367 36" fill="none" xmlns="http://www.w3.org/2000/svg">
<path d="M24.516 34.128C26.0293 34.012 27.5507 33.8347 29.068 33.78C30.4813 33.728 31.896 33.6733 33.3093 33.6213C41.052 33.3347 48.7946 32.9667 56.5413 32.8547C64.644 32.736 72.7507 32.5387 80.8547 32.5187C89.124 32.4987 97.392 32.4653 105.663 32.5053C121.78 32.584 137.897 32.6547 154.013 32.6947C170.021 32.7333 186.029 32.7427 202.036 32.6627C209.981 32.624 217.928 32.432 225.871 32.28C233.671 32.132 241.463 31.8773 249.259 31.584C250.973 31.5213 252.684 31.3933 254.396 31.296C256.087 31.196 257.78 31.1187 259.469 30.9893C263.807 30.66 268.137 30.308 272.468 29.9173C280.009 29.232 287.527 28.32 295.077 27.7507C302.987 27.1533 310.916 26.8133 318.835 26.328C322.408 26.108 326.001 25.836 329.551 25.3533C333.609 24.8053 337.631 24.1413 341.641 23.316C345.519 22.5173 349.393 21.696 353.275 20.9107C355.137 20.532 357.009 20.1893 358.889 19.9187C361.017 19.6147 363.127 19.3013 365.227 18.8493C366.237 18.6306 366.436 17.2907 366.436 16.428C366.44 15.9387 366.363 15.4627 366.203 15C366.055 14.612 365.744 13.992 365.227 14.0107C361.436 14.1373 357.648 14.2653 353.86 14.4413C350.036 14.6187 346.208 14.7293 342.381 14.7813C334.949 14.8813 327.504 14.6267 320.081 14.3187C321.347 14.1493 322.612 13.98 323.876 13.8093C328.42 13.196 332.952 12.4253 337.521 12.012C339.951 11.792 342.389 11.6067 344.813 11.3227C346.043 11.1813 347.263 11.016 348.477 10.772C349.784 10.512 351.069 10.1533 352.353 9.79733C352.764 9.752 353.077 9.54665 353.289 9.18665C353.667 8.66932 353.84 7.97468 353.905 7.31068C355.204 6.91468 355.465 5.00933 355.465 3.86266C355.475 3.15333 355.361 2.46533 355.128 1.796C354.904 1.20666 354.473 0.373333 353.717 0.365333C349.772 0.321333 345.833 0.0560089 341.888 0.00800891C341.425 0.00267558 340.963 1.09855e-06 340.5 1.09855e-06C337.105 1.09855e-06 333.716 0.146664 330.325 0.329331C322.773 0.73333 315.217 1.21733 307.673 1.76133C304.165 2.01333 300.663 2.30932 297.151 2.52132C292.859 2.77866 288.573 2.97468 284.277 3.14134C277.087 3.41868 269.885 3.52799 262.693 3.65866C254.443 3.81066 246.203 4.02668 237.961 4.41201C230.327 4.76935 222.7 5.24533 215.073 5.69867C207.413 6.15333 199.753 6.60266 192.095 7.06266C184.245 7.532 176.388 7.88267 168.531 8.232C164.556 8.412 160.576 8.46401 156.597 8.57601C152.833 8.68268 149.065 8.71066 145.299 8.764C137.884 8.872 130.471 8.93865 123.055 9.01598C108.097 9.16665 93.1466 9.40932 78.192 9.65599C69.976 9.79332 61.7613 9.944 53.5453 10.096C49.356 10.1747 45.1627 10.34 40.976 10.46C37.3933 10.5627 33.8133 10.804 30.2347 10.9853C26.4227 11.1813 22.6133 11.396 18.8026 11.6146C16.536 11.7466 14.268 11.88 12 12.0107C11.0173 12.0693 10.0306 12.1253 9.04398 12.184C8.14531 12.236 7.24799 12.3027 6.35199 12.3693C5.71332 12.4173 5.08532 12.5107 4.45332 12.6173C3.75465 12.7347 3.05732 13.0453 2.38665 13.272C1.98399 13.5907 1.70532 13.9973 1.55065 14.492C1.32532 15.1413 1.21599 15.8107 1.22399 16.5C1.21599 17.192 1.32532 17.8613 1.55065 18.512C1.67332 18.756 1.79599 19.0013 1.91999 19.2467C2.14665 19.636 2.48266 19.856 2.92266 19.904C3.70132 20.124 4.472 20.3427 5.27067 20.4747C5.70934 20.4267 6.04264 20.2107 6.27197 19.8227C6.35864 19.704 6.43333 19.5787 6.50133 19.4453C6.92 19.4333 7.33999 19.4347 7.75999 19.4347C8.16133 19.4347 8.564 19.4333 8.968 19.4227C9.87333 19.4027 10.7773 19.3813 11.684 19.36C14.016 19.3053 16.348 19.2493 18.68 19.1947C21.2066 19.1347 23.7333 19.088 26.2586 19.044C25.9973 19.068 25.7373 19.0893 25.476 19.1107C19.508 19.5747 13.544 20.04 7.58265 20.5707C6.61598 20.6787 5.88265 21.1587 5.37865 22.0107C4.63465 23.0293 4.22666 24.3427 4.02533 25.6613C2.97599 25.6507 1.92665 25.64 0.878646 25.632C0.143979 25.6253 0 26.9013 0 27.3907C0 27.8893 0.143979 29.14 0.878646 29.148C1.88398 29.1586 2.88799 29.176 3.89199 29.1893C3.97866 30.2973 4.20264 31.38 4.57197 32.4427C4.83997 32.98 5.10931 33.52 5.37865 34.0573C5.88265 34.9093 6.61598 35.3893 7.58265 35.4973C13.2253 34.9973 18.8693 34.56 24.516 34.128" fill="#04A1E0"/>
</svg>
