<svg width="906" height="788" viewBox="0 0 906 788" fill="none" xmlns="http://www.w3.org/2000/svg">
<g id="undraw_accept_terms_4in8 1" clip-path="url(#clip0)">
<g id="Group 1">
<g id="red">
<path id="Vector" d="M326.8 256.25C322.251 256.25 317.804 257.599 314.022 260.126C310.24 262.653 307.292 266.246 305.551 270.448C303.81 274.651 303.354 279.275 304.242 283.737C305.129 288.199 307.32 292.297 310.537 295.513C313.753 298.73 317.851 300.921 322.313 301.808C326.774 302.696 331.399 302.24 335.602 300.499C339.804 298.758 343.397 295.81 345.924 292.028C348.451 288.246 349.8 283.799 349.8 279.25C349.8 273.15 347.377 267.3 343.063 262.987C338.75 258.673 332.9 256.25 326.8 256.25ZM326.8 260.69C330.461 260.69 334.04 261.776 337.084 263.809C340.128 265.843 342.5 268.734 343.901 272.117C345.302 275.499 345.669 279.221 344.954 282.811C344.24 286.402 342.477 289.7 339.889 292.289C337.3 294.877 334.002 296.64 330.411 297.354C326.821 298.069 323.099 297.702 319.717 296.301C316.334 294.9 313.443 292.528 311.41 289.484C309.376 286.44 308.29 282.861 308.29 279.2C308.289 276.769 308.767 274.361 309.696 272.115C310.626 269.869 311.989 267.828 313.709 266.109C315.428 264.389 317.469 263.026 319.715 262.096C321.961 261.167 324.369 260.689 326.8 260.69" fill="#FF5288"/>
</g>
<path id="Vector_2" opacity="0.1" d="M0.409987 404.29C3.14999 434.64 20.32 462.12 30.82 491.03C45.6736 532.083 47.0746 576.798 34.82 618.7C32.32 627.31 29.24 635.95 29.23 644.77C29.23 675.18 63.88 695.36 95.36 708.77C175.369 742.737 258.818 767.951 344.25 783.97C372.19 789.24 407.08 791.53 424.76 771.68C433.24 762.15 435.3 749.68 441.53 739.02C457.42 711.76 496.08 701.17 530.78 695.1C572.62 687.787 614.852 682.925 657.26 680.54C699.95 678.14 748.43 676.06 776.72 648.02C794.72 630.2 799.94 605.61 800.65 582.39C803 506.2 766.59 423.75 813.32 357.76C832.92 330.08 864.9 309.87 884.32 282.12C912.47 241.9 910.04 190.82 890.98 147.96C871.92 105.1 838.15 68.66 804.88 32.96C793.88 21.15 782.14 8.87003 765.6 3.39003C748.4 -2.30997 728.9 0.310027 710.46 3.00003C626.58 15.25 539.46 28.59 469.15 70.65C434.21 91.54 405.03 118.65 373.86 143.54C306.53 197.37 228.52 247.1 139.61 268.35C67.38 285.63 -6.09001 332.21 0.409987 404.29Z" fill="#0095DF"/>
<path id="Vector_3" d="M274.92 188.25C274.92 188.25 216.92 178.01 274.92 256.53V188.25Z" fill="#FFBEC7"/>
<path id="Vector_4" d="M673.12 585.83C673.12 585.83 664.72 576.29 641.53 582.04C630.18 571.22 616.04 555.54 615.53 544.17C610.81 545.72 606.2 547.47 601.67 549.39C582.03 527.45 556.86 492.63 557.93 459.11C559.7 404.41 522.14 309.83 522.14 309.83C522.14 309.83 525.24 271.26 519.43 239.38C515.49 217.78 507.43 199.26 491.6 197.85C489.155 197.596 486.683 197.865 484.35 198.64C455.1 208.64 473.27 302.01 473.27 302.01L447.96 380.13L299.59 459.13C299.59 459.13 389.48 577.18 433.12 581.52C433.12 581.52 465.27 615.24 488.43 644.84C480.25 655.84 475.88 663.12 475.88 663.12L498.3 695.04C489.09 707.41 476.13 731.61 504.68 742.97C543.95 758.59 630.35 687.42 630.35 687.42C630.35 687.42 705.41 637.92 673.12 585.83Z" fill="url(#paint0_linear)"/>
<path id="Vector_5" d="M272.97 187.83C272.97 187.83 213.62 177.41 272.97 257.27V187.83Z" fill="url(#paint1_linear)"/>
<path id="Vector_6" d="M259.44 262.06C259.44 262.06 237.74 262.06 238.22 288.88C238.265 293.377 239.714 297.748 242.364 301.382C245.014 305.016 248.732 307.732 253 309.15C257.616 310.672 262.647 310.313 267 308.15C270.428 306.486 273.419 304.043 275.733 301.016C278.047 297.989 279.62 294.462 280.325 290.717C281.031 286.973 280.85 283.115 279.797 279.453C278.744 275.792 276.847 272.427 274.26 269.63C270.336 265.48 265.103 262.807 259.44 262.06V262.06Z" fill="url(#paint2_linear)"/>
<path id="Vector_7" d="M269.94 316.5C268.03 315.552 265.932 315.043 263.8 315.01C263.8 315.01 242.85 320.22 246.35 345.39C246.35 345.39 248.1 363.62 266.42 361.01C278.98 359.22 280.47 342.75 280.17 332.57C280.101 329.211 279.111 325.936 277.307 323.102C275.502 320.268 272.954 317.984 269.94 316.5Z" fill="url(#paint3_linear)"/>
<path id="Vector_8" d="M270.82 383.34C269.21 382.433 267.407 381.922 265.56 381.85C263.293 383.284 261.134 384.882 259.1 386.63C255.691 389.484 252.665 392.768 250.1 396.4C242.2 407.84 239.63 424.65 269.1 441.75V419.17C272.759 415.768 275.839 411.793 278.22 407.4C280.416 403.226 280.87 398.352 279.483 393.844C278.097 389.335 274.982 385.559 270.82 383.34V383.34Z" fill="url(#paint4_linear)"/>
<path id="Vector_9" d="M473.35 655.52C473.35 655.52 527.12 565.91 609.9 538.6L605.63 587.25L537.03 655.53L473.35 655.52Z" fill="#DFE5EE"/>
<path id="Vector_10" opacity="0.05" d="M473.35 655.52C473.35 655.52 527.12 565.91 609.9 538.6L605.63 587.25L537.03 655.53L473.35 655.52Z" fill="black"/>
<path id="Vector_11" d="M501.51 679.42C501.51 679.42 463.1 718.68 501.51 734.04C539.92 749.4 624.41 679.42 624.41 679.42C624.41 679.42 697.81 630.77 666.23 579.56C666.23 579.56 630.39 538.59 501.51 679.42Z" fill="#6C63FF"/>
<path id="Vector_12" d="M618.44 565.9C618.44 565.9 506.63 695.63 508.34 676.83C508.84 671.37 502.54 660.49 493.34 647.83C470.99 616.92 431.52 575.3 431.52 575.3C388.85 571.03 300.94 454.96 300.94 454.96L446.03 377.29L470.78 300.48C470.78 300.48 453.02 208.66 481.62 198.83C483.901 198.067 486.318 197.801 488.71 198.05C489.759 198.141 490.8 198.318 491.82 198.58C505.21 201.95 512.27 218.92 515.82 238.58C515.82 238.69 515.87 238.81 515.89 238.92C521.57 270.27 518.54 308.19 518.54 308.19C518.54 308.19 555.24 401.19 553.54 454.99C552.4 490.99 581.85 528.51 601.45 549.38C611.17 559.66 618.44 565.9 618.44 565.9Z" fill="#FFBEC7"/>
<path id="Vector_13" opacity="0.05" d="M463.96 496.77C463.96 496.77 465.67 415.69 451.16 395.21C436.65 374.73 319.7 460.08 319.7 460.08C319.7 460.08 440.92 474.58 463.96 496.77Z" fill="black"/>
<path id="Vector_14" opacity="0.05" d="M501.51 525.83C501.51 525.83 554.21 494.67 553.51 444.53Z" fill="black"/>
<path id="Vector_15" opacity="0.05" d="M473.35 555.66C473.35 555.66 458.84 576.14 431.53 575.29Z" fill="black"/>
<path id="Vector_16" opacity="0.05" d="M618.44 565.9C618.44 565.9 506.63 695.63 508.34 676.83C508.84 671.37 502.54 660.49 493.34 647.83C555.27 626.59 588.89 573.6 601.47 549.36C611.17 559.66 618.44 565.9 618.44 565.9Z" fill="black"/>
<path id="Vector_17" d="M648.8 589.55C648.799 589.799 648.772 590.047 648.72 590.29C647 598.93 645.72 607.64 644.31 616.35C643.872 619.118 643.203 621.844 642.31 624.5C639.855 631.574 636.191 638.169 631.48 643.99C597.48 687.07 510.9 709.28 510.9 709.28L510.58 708.81L473.35 655.51C571.5 636.74 609.9 538.59 609.9 538.59C610.64 554.98 639.99 580.46 647.45 586.68C647.868 587.033 648.205 587.472 648.436 587.967C648.667 588.463 648.788 589.003 648.79 589.55H648.8Z" fill="#DFE5EE"/>
<path id="Vector_18" opacity="0.5" d="M515.86 238.55C491.08 235.38 489.07 214.18 491.01 198.84C491.27 198.75 491.55 198.66 491.82 198.59C505.21 201.96 512.27 218.93 515.86 238.55Z" fill="#EFF4F8"/>
<path id="Vector_19" opacity="0.05" d="M648.8 589.55C648.799 589.799 648.772 590.047 648.72 590.29C647 598.93 645.72 607.64 644.31 616.35C643.872 619.118 643.203 621.844 642.31 624.5L640.2 630.34L635.08 638.83L631.48 643.95C597.48 687.03 510.9 709.24 510.9 709.24L510.58 708.77C513.29 707.65 571.64 683.54 594.97 661.87C617.11 641.32 644.37 594.4 648.27 587.59C648.623 588.183 648.806 588.86 648.8 589.55Z" fill="black"/>
<path id="Vector_20" d="M460.37 53.4H286.29C284.029 53.396 281.789 53.8376 279.698 54.6993C277.607 55.561 275.707 56.8261 274.105 58.4224C272.503 60.0186 271.231 61.9147 270.362 64.0025C269.493 66.0902 269.044 68.3286 269.04 70.59V451.79C269.044 454.051 269.493 456.29 270.362 458.378C271.231 460.465 272.503 462.361 274.105 463.958C275.707 465.554 277.607 466.819 279.698 467.681C281.789 468.542 284.029 468.984 286.29 468.98H460.37C462.631 468.984 464.871 468.542 466.962 467.681C469.053 466.819 470.953 465.554 472.555 463.958C474.157 462.361 475.429 460.465 476.298 458.378C477.167 456.29 477.616 454.051 477.62 451.79V70.58C477.609 66.0147 475.786 61.6404 472.552 58.4189C469.317 55.1973 464.935 53.392 460.37 53.4V53.4Z" fill="url(#paint5_linear)"/>
<path id="Vector_21" d="M465.02 56.58H281.63C275.555 56.58 270.63 61.5049 270.63 67.58V456.37C270.63 462.445 275.555 467.37 281.63 467.37H465.02C471.095 467.37 476.02 462.445 476.02 456.37V67.58C476.02 61.5049 471.095 56.58 465.02 56.58Z" fill="#535461"/>
<path id="Vector_22" d="M460.14 84H285V418.36H460.14V84Z" fill="#F1F1F4"/>
<path id="Vector_23" d="M352.63 77.28C353.508 77.28 354.22 76.5681 354.22 75.69C354.22 74.8118 353.508 74.1 352.63 74.1C351.752 74.1 351.04 74.8118 351.04 75.69C351.04 76.5681 351.752 77.28 352.63 77.28Z" fill="white"/>
<path id="Vector_24" d="M394.62 74.1H361.59C361.038 74.1 360.59 74.5477 360.59 75.1V76.28C360.59 76.8323 361.038 77.28 361.59 77.28H394.62C395.172 77.28 395.62 76.8323 395.62 76.28V75.1C395.62 74.5477 395.172 74.1 394.62 74.1Z" fill="white"/>
<path id="Vector_25" d="M372.53 456.23C378.688 456.23 383.68 451.238 383.68 445.08C383.68 438.922 378.688 433.93 372.53 433.93C366.372 433.93 361.38 438.922 361.38 445.08C361.38 451.238 366.372 456.23 372.53 456.23Z" fill="white"/>
<path id="Vector_26" d="M261.7 261.22C261.7 261.22 240.47 261.22 240.95 287.59C240.988 292.002 242.4 296.292 244.99 299.865C247.579 303.437 251.218 306.113 255.4 307.52C259.91 309.002 264.823 308.643 269.07 306.52C273.677 304.246 277.433 300.554 279.785 295.986C282.137 291.418 282.961 286.216 282.136 281.145C281.311 276.073 278.881 271.401 275.202 267.814C271.523 264.228 266.79 261.916 261.7 261.22V261.22Z" fill="#FFBEC7"/>
<path id="Vector_27" opacity="0.5" d="M261.7 274.83C261.7 274.83 242.07 288.49 259.14 300.43C259.13 300.48 257.42 276.58 261.7 274.83Z" fill="#EFF4F8"/>
<path id="Vector_28" d="M265.96 313.28C265.96 313.28 245.48 318.4 248.89 343.15C248.89 343.15 250.6 361.07 268.52 358.51C280.81 356.75 282.26 340.51 281.97 330.51C281.91 327.213 280.946 323.996 279.183 321.21C277.419 318.423 274.924 316.175 271.97 314.71C270.099 313.79 268.045 313.301 265.96 313.28V313.28Z" fill="#FFBEC7"/>
<path id="Vector_29" opacity="0.5" d="M265.1 324.37C265.1 324.37 245.47 332.05 265.1 353.37C265.1 353.39 255.7 332.91 265.1 324.37Z" fill="#EFF4F8"/>
<path id="Vector_30" d="M271.08 415.7V437.89C242.28 421.09 244.79 404.55 252.52 393.31C255.036 389.742 258.004 386.515 261.35 383.71C263.339 381.991 265.452 380.421 267.67 379.01C269.479 379.082 271.245 379.586 272.82 380.48C276.887 382.688 279.921 386.409 281.264 390.837C282.608 395.265 282.154 400.044 280 404.14C277.672 408.451 274.66 412.355 271.08 415.7V415.7Z" fill="#FFBEC7"/>
<path id="Vector_31" opacity="0.5" d="M256.57 404.6C256.57 404.6 254.35 399.26 252.52 393.3C255.036 389.732 258.004 386.505 261.35 383.7C266.98 392.96 256.57 404.6 256.57 404.6Z" fill="#EFF4F8"/>
<path id="Vector_32" opacity="0.05" d="M515.6 308.59C515.6 308.59 493.41 333.34 486.6 335.9Z" fill="black"/>
<path id="Vector_33" d="M425.233 226H307V210H425.233L440 218.045L425.233 226Z" fill="#00DD90"/>
<path id="Vector_34" d="M425.233 287H307V271H425.233L440 279.045L425.233 287Z" fill="#FF5288"/>
</g>
<g id="pink">
<path id="Vector_35" d="M314 261V297H307V261H310.281H314Z" fill="#FF5288"/>
</g>
<g id="green">
<g id="Vector_36">
<path d="M313 200V236.448H306V200H309.5H313Z" fill="#00DD90"/>
<path d="M313 200V236.448H306V200H309.5H313Z" fill="#00DD90"/>
</g>
</g>
</g>
<defs>
<linearGradient id="paint0_linear" x1="490.39" y1="745.19" x2="490.39" y2="197.74" gradientUnits="userSpaceOnUse">
<stop stop-color="#808080" stop-opacity="0.25"/>
<stop offset="0.54" stop-color="#808080" stop-opacity="0.12"/>
<stop offset="1" stop-color="#808080" stop-opacity="0.1"/>
</linearGradient>
<linearGradient id="paint1_linear" x1="10984.5" y1="22093.2" x2="10984.5" y2="17208.9" gradientUnits="userSpaceOnUse">
<stop stop-color="#808080" stop-opacity="0.25"/>
<stop offset="0.54" stop-color="#808080" stop-opacity="0.12"/>
<stop offset="1" stop-color="#808080" stop-opacity="0.1"/>
</linearGradient>
<linearGradient id="paint2_linear" x1="17541.2" y1="17848.9" x2="17541.2" y2="15543" gradientUnits="userSpaceOnUse">
<stop stop-color="#808080" stop-opacity="0.25"/>
<stop offset="0.54" stop-color="#808080" stop-opacity="0.12"/>
<stop offset="1" stop-color="#808080" stop-opacity="0.1"/>
</linearGradient>
<linearGradient id="paint3_linear" x1="14300.9" y1="19624" x2="14300.9" y2="17484.2" gradientUnits="userSpaceOnUse">
<stop stop-color="#808080" stop-opacity="0.25"/>
<stop offset="0.54" stop-color="#808080" stop-opacity="0.12"/>
<stop offset="1" stop-color="#808080" stop-opacity="0.1"/>
</linearGradient>
<linearGradient id="paint4_linear" x1="14753.8" y1="30206.7" x2="14753.8" y2="26619.3" gradientUnits="userSpaceOnUse">
<stop stop-color="#808080" stop-opacity="0.25"/>
<stop offset="0.54" stop-color="#808080" stop-opacity="0.12"/>
<stop offset="1" stop-color="#808080" stop-opacity="0.1"/>
</linearGradient>
<linearGradient id="paint5_linear" x1="108862" y1="218291" x2="108862" y2="45588.5" gradientUnits="userSpaceOnUse">
<stop stop-color="#808080" stop-opacity="0.25"/>
<stop offset="0.54" stop-color="#808080" stop-opacity="0.12"/>
<stop offset="1" stop-color="#808080" stop-opacity="0.1"/>
</linearGradient>
<clipPath id="clip0">
<rect width="905.39" height="787.66" fill="white"/>
</clipPath>
</defs>
</svg>
