<svg class="list-svg" width="200" height="1474" viewBox="0 0 200 1474" fill="none" xmlns="http://www.w3.org/2000/svg">
<path d="M131.496 1442.41C131.503 1442.41 131.516 1442.41 131.522 1442.41C132.369 1442.41 133.191 1442.18 133.942 1441.81C134 1445.67 133.891 1449.53 133.484 1453.39C133.337 1454.38 133.165 1455.35 132.981 1456.31C132.439 1451.68 131.961 1447.05 131.496 1442.41ZM134.248 1350.43C134.407 1349.81 134.567 1349.2 134.713 1348.58C134.777 1352.66 134.847 1356.73 134.917 1360.81C134.694 1357.35 134.471 1353.89 134.248 1350.43ZM127.624 1247.07C125.159 1210.83 122.662 1174.59 120.177 1138.35C118.623 1115.61 116.897 1092.86 115.649 1070.09C113.426 1029.64 111.196 989.189 108.979 948.742C107.827 927.651 106.533 906.568 105.667 885.465C104.342 853.145 103.005 820.831 101.667 788.511C102.138 755.3 102.635 722.088 103.151 688.87C103.451 668.748 103.877 648.62 104.03 628.491C104.221 603.375 104.419 578.253 104.616 553.137C106.215 586.566 107.814 619.994 109.419 653.422C112.324 714.291 114.903 775.173 117.591 836.055C120.318 897.758 122.776 959.462 125.324 1021.17C126.21 1042.46 126.929 1063.76 127.706 1085.05C128.14 1096.89 128.573 1108.74 128.999 1120.58C128.993 1128.43 128.968 1136.28 128.961 1144.13C128.961 1151.35 128.802 1158.57 128.713 1165.78C128.503 1184.42 128.273 1203.05 128.057 1221.68C127.942 1230.67 127.834 1239.65 127.726 1248.64C127.694 1248.12 127.662 1247.59 127.624 1247.07ZM87.2524 1045.08C86.3542 1028.17 85.437 1011.26 84.5325 994.355C83.507 975.335 82.3222 956.302 81.5324 937.263C80.5897 914.485 79.6469 891.701 78.7042 868.923C77.8634 840.221 77.0226 811.519 76.1818 782.817C77.4685 799.06 78.7551 815.302 80.0354 831.545C81.4814 849.813 82.7744 868.101 84.4369 886.344C85.1631 894.293 85.8893 902.236 86.6154 910.179C86.609 910.708 86.609 911.23 86.6026 911.753C86.5071 928.486 86.4052 945.232 86.3097 961.971C86.2651 967.297 86.144 972.628 86.2459 977.947C86.7364 1003.29 87.2205 1028.63 87.7173 1053.98C87.5645 1051.01 87.418 1048.04 87.2524 1045.08ZM47.5754 1111.89C47.2951 1135.13 47.0149 1158.38 46.7346 1181.63C45.69 1170.75 44.6453 1159.88 43.6007 1149C39.9062 1110.46 36.199 1071.92 32.4982 1033.38C32.046 1028.75 31.6065 1024.11 31.1606 1019.47C32.097 999.19 33.0461 978.915 33.9824 958.634C34.4474 948.519 35.0143 938.448 35.7277 928.352C40.1547 865.343 44.5625 802.334 48.9831 739.331C49.206 736.184 49.4354 733.037 49.6774 729.891C49.6137 756.351 49.5564 782.817 49.499 809.27C49.378 858.272 48.9703 907.275 48.6582 956.271C48.3206 1008.14 48.1996 1060.01 47.5754 1111.89ZM18.5295 769.115C18.2683 763.918 18.3129 758.695 18.2619 753.484C18.0708 735.547 17.8797 717.604 17.6823 699.666C17.2619 659.881 16.8351 620.096 16.4083 580.311C16.3574 575.03 16.3192 569.769 16.4274 564.495C16.7778 548.335 17.1217 532.168 17.4657 516.008C18.3001 476.522 19.1346 437.02 19.9818 397.53C20.1156 391.31 20.3385 385.1 20.5869 378.89C21.3767 358.94 22.1729 338.99 22.9692 319.03C24.0584 291.5 25.0202 263.96 26.4343 236.44C28.0395 205.12 29.358 173.78 31.4409 142.49C32.1416 131.98 32.8295 121.46 33.5301 110.95C33.9314 104.91 34.2308 98.8399 34.7404 92.8199C34.855 91.4299 34.9697 90.05 35.0907 88.67C35.5303 98.31 35.957 107.95 36.422 117.59C36.2245 118.84 36.0398 120.09 35.9188 121.34C35.6767 123.65 35.6321 125.92 35.6194 128.24C35.6194 128.3 35.6194 128.35 35.6194 128.42C35.6194 133.12 35.9953 137.82 36.3074 142.5C36.3902 143.66 36.4411 144.83 36.5112 145.99C33.7276 148.18 31.8676 151.51 31.9313 155.25C32.2371 175.03 32.3263 194.81 33.1862 214.58C33.9124 231.35 34.6448 248.1 35.371 264.86C36.3519 287.46 37.2819 310.06 38.2055 332.68C39.212 357.45 40.2438 382.22 41.2948 407C41.5751 413.79 41.8681 420.58 42.1611 427.37C42.1102 443.17 42.0592 458.97 42.0146 474.777C41.9573 490.077 41.9063 505.371 41.8554 520.665C41.8363 525.295 41.9 529.907 41.7089 534.538C40.5432 562.221 39.3966 589.903 38.2437 617.593C37.0972 645.021 35.9697 672.442 34.8168 699.864C34.6767 702.953 34.4601 706.023 34.2627 709.106C33.562 719.451 32.8677 729.795 32.1671 740.146C29.2688 783.161 26.377 826.169 23.4851 869.184C21.8354 835.826 20.1983 802.474 18.5295 769.115ZM70.672 363.25C71.6465 391.03 72.9014 418.8 74.048 446.57C76.6978 511.403 79.545 576.228 82.4305 641.052C83.456 664.168 84.3987 687.284 85.5261 710.406C86.2268 724.884 86.9466 739.363 87.6537 753.841C87.59 761.293 87.5326 768.752 87.4817 776.205C84.5834 738.611 81.698 701.01 78.8125 663.41C78.2647 656.25 77.959 649.059 77.5513 641.899C76.4048 622.376 75.2646 602.847 74.1244 583.324C72.9715 563.616 71.8249 543.914 70.672 524.2C70.3662 507.817 70.035 491.428 69.6337 475.045C68.7037 438.04 67.7865 401.02 66.8629 364.01C66.3788 344.52 65.9966 325.03 65.2896 305.55C64.8947 294.43 64.487 283.32 64.0857 272.19C65.4616 270.86 66.5763 269.16 66.9393 267.36C67.0412 266.86 67.1495 266.35 67.2514 265.86C68.3853 298.32 69.5318 330.79 70.672 363.25ZM117.356 582.502C121.076 626.491 124.815 670.474 128.547 714.457C128.56 722.496 128.573 730.54 128.598 738.573C128.681 764.727 128.878 790.874 128.878 817.028C128.878 836.246 128.917 855.47 128.955 874.694C128.675 867.279 128.394 859.859 128.114 852.444C125.936 794.04 123.566 735.636 121.305 677.22C120.177 648.365 118.884 619.51 117.687 590.655C117.572 587.929 117.47 585.215 117.356 582.489C117.356 582.495 117.356 582.495 117.356 582.502ZM139.618 1473.86C141.229 1474.32 143.491 1473.64 144.223 1471.99C144.567 1471.22 144.911 1470.44 145.242 1469.65C145.401 1469.18 145.58 1468.72 145.745 1468.25C145.879 1467.3 145.994 1466.35 146.115 1465.4C146.249 1464.4 145.605 1463.21 144.924 1462.53C144.841 1462.45 144.758 1462.37 144.669 1462.3C143.542 1382.37 142.37 1302.45 141.191 1222.51C141.102 1217 140.911 1211.49 140.726 1205.99C140.121 1188.14 139.516 1170.3 138.924 1152.48C138.828 1149.55 138.726 1146.63 138.63 1143.7C138.688 1138.45 138.694 1133.21 138.713 1127.96C138.809 1110.89 138.898 1093.82 138.987 1076.75C139.153 1045.87 139.306 1014.99 139.484 984.113C139.739 939.015 139.828 893.917 139.943 848.82C141.51 867.177 143.096 885.535 144.72 903.886C145.663 914.574 146.612 925.256 147.561 935.945C147.688 953.27 147.803 970.596 147.937 987.922C148.045 1004.47 148.039 1021 148.026 1037.55C148.019 1044.89 148.019 1052.25 148.019 1059.59C148.026 1067.42 148.026 1075.25 148.026 1083.08C148.026 1100.97 148.026 1118.87 148.096 1136.76C148.172 1155.16 148.255 1173.57 148.325 1191.97C148.395 1206.39 148.395 1220.8 148.555 1235.22C148.752 1251.74 149.058 1268.26 149.3 1284.79C149.319 1286.34 150.561 1287.63 152.128 1287.63C153.739 1287.63 154.892 1286.34 154.969 1284.79C155.122 1281.84 155.37 1278.88 155.351 1275.91C155.345 1274.1 155.332 1272.29 155.326 1270.46C155.294 1264.16 155.255 1257.86 155.217 1251.56C155.185 1245.15 155.141 1238.75 155.077 1232.34C154.861 1211.28 154.638 1190.23 154.408 1169.18C154.408 1164.43 154.408 1159.67 154.408 1154.92C154.402 1131.5 154.478 1108.1 154.548 1084.7C154.618 1062.2 154.714 1039.7 154.771 1017.21C158.001 1053.65 161.237 1090.09 164.466 1126.52C170.116 1190.37 175.925 1254.2 181.747 1318.04C181.97 1320.52 182.582 1322.62 184.384 1324.42C186.079 1326.11 188.391 1327.07 190.779 1327.07C193.168 1327.07 195.487 1326.11 197.162 1324.42C198.722 1322.87 200.022 1320.32 199.805 1318.04C192.99 1243.09 186.25 1168.15 179.645 1093.18C173.524 1023.75 167.377 954.334 161.275 884.911C158.504 853.285 155.899 821.64 153.287 789.995C152.771 770.746 152.249 751.497 151.72 732.248C151.262 715.094 150.803 697.959 150.344 680.806C150.198 675.57 150.083 670.328 149.809 665.092C148.007 630.389 146.185 595.681 144.382 560.979C143.497 543.889 142.605 526.786 141.713 509.696C141.433 504.32 141.178 498.957 140.841 493.581C140.306 485.147 139.777 476.707 139.242 468.27C139.025 454.73 138.815 441.18 138.611 427.64C138.261 405.93 137.923 384.21 137.388 362.49C136 306.37 134.624 250.24 133.611 194.11C133.496 188.01 133.465 181.9 134.006 175.83C134.567 172.44 135.433 169.17 136.579 165.9C137.274 163.85 136.796 161.31 135.732 159.49C134.643 157.64 132.84 156.24 130.764 155.67C128.63 155.08 126.286 155.39 124.369 156.51C122.369 157.68 121.337 159.37 120.547 161.48C120.158 162.5 119.802 163.52 119.464 164.55C117.133 128.57 114.84 92.59 112.572 56.62C112.196 50.62 111.973 44.61 111.712 38.62C111.476 33.02 111.094 27.45 110.489 21.89C110.247 19.67 109.909 17.46 109.565 15.27C109.069 12.1 108.209 8.96997 107.54 5.83997C107.158 4.06997 105.769 2.44005 104.228 1.55005C102.463 0.510049 100.654 0.440059 98.6924 0.810059C96.5521 1.23006 95.0043 2.52996 93.3482 3.82996C93.0488 4.05996 92.7431 4.29003 92.4373 4.53003C91.5328 5.43003 90.9213 6.48997 90.5773 7.71997C90.4054 8.34997 90.3162 8.99 90.3162 9.63C90.3162 10.92 90.6538 12.19 91.3035 13.3C92.2016 14.83 93.6475 16 95.3355 16.54C95.3482 16.59 95.361 16.6399 95.3738 16.6899C95.8642 18.6999 96.2081 20.73 96.5075 22.77C97.9534 34.9 98.2847 47.11 99.2274 59.29C99.9217 68.19 100.61 77.08 101.31 85.99C102.189 97.17 103.062 108.35 103.915 119.54C106.132 148.32 108.368 177.1 110.527 205.88C114.572 259.83 118.782 313.76 122.56 367.73C123.018 374.22 123.471 380.72 123.923 387.21C124.133 394.32 124.254 401.44 124.42 408.55C124.776 423.66 125.139 438.76 125.496 453.87C123.986 435.12 122.483 416.37 120.954 397.63C119.419 378.78 117.954 359.92 116.483 341.06C114.228 312.15 111.82 283.23 109.718 254.3C107.731 227.03 105.68 199.76 103.686 172.5C102.743 159.37 101.814 146.23 100.877 133.1C100.399 126.3 99.8835 119.5 99.495 112.68C99.2402 108.14 98.9471 103.6 98.5267 99.0699C98.1127 94.7199 97.3675 90.42 96.7814 86.1C96.5394 84.36 96.2591 82.66 95.8897 80.95C95.4565 78.99 94.4948 77.19 93.7113 75.38C92.7749 73.2 90.9468 71.67 89.125 70.3C87.8893 69.36 86.6408 68.88 85.2076 68.26C84.3923 67.92 83.577 67.58 82.7617 67.24C82.5642 67.19 82.3667 67.16 82.1756 67.12C80.6087 62.96 76.5002 59.9301 71.914 59.9301C65.8501 59.9301 61.0919 64.9 60.9645 70.88C60.8053 78.94 60.7161 87.0001 60.697 95.0601C60.6906 96.9701 61.2066 98.78 62.0856 100.36C62.2512 105.37 62.3977 110.39 62.5506 115.4C62.8117 124.03 63.0729 132.65 63.3404 141.28C62.7035 137.18 62.041 133.07 61.3976 128.96C61.1811 117.16 60.9454 105.37 60.6397 93.5699C60.5505 90.2199 58.9135 87.23 56.4102 85.36C56.4293 85.05 56.4356 84.75 56.4675 84.45C56.7286 82.8 57.0471 81.1901 57.4293 79.5601C58.2319 76.0601 56.6331 72.48 53.4101 71.02C53.3081 68.54 53.1998 66.06 53.0342 63.58C52.8495 60.99 52.1106 58.72 50.2442 56.85C48.4607 55.06 46.0211 54.05 43.4924 54.05C41.454 54.05 39.4795 54.8 37.8552 56C37.8615 55.82 37.8807 55.64 37.8934 55.47C38.4794 48.53 38.7278 41.57 39.5113 34.66C40.1737 30.59 40.9381 26.48 42.2885 22.59C42.9828 22.38 43.6835 22.2 44.3969 22.05C44.7982 22.02 45.2059 22 45.6135 21.97C47.9448 21.82 50.0022 21.14 51.6838 19.45C53.2953 17.85 54.2126 15.64 54.2126 13.38C54.2126 11.11 53.2953 8.90005 51.6838 7.30005C50.2188 5.83005 47.7729 4.56003 45.6135 4.78003C43.5115 4.99003 41.4477 5.26 39.3775 5.62C37.3902 5.98 35.4538 7.06999 33.6129 7.85999C33.1288 8.22999 32.6384 8.59997 32.1479 8.96997C30.8867 9.71997 29.8803 10.74 29.1159 12C27.9758 13.56 27.1604 15.1101 26.4853 16.9301C25.1094 20.6601 24.4533 24.57 23.7081 28.47C22.5806 34.3 22.3194 40.3 22.0073 46.2C21.5169 55.52 20.6506 64.82 19.9054 74.12C18.7524 88.59 17.746 103.05 16.816 117.54C15.9433 131.04 14.937 144.53 14.249 158.04C13.2617 177.25 12.2872 196.49 11.3062 215.71C10.6756 228.1 9.90485 240.49 9.40801 252.88C8.84111 267.25 8.25511 281.62 7.67547 295.99C6.79644 318.06 5.91103 340.13 5.01927 362.21C4.64982 371.7 4.10209 381.19 3.88551 390.69C3.14663 424.9 2.40775 459.09 1.66249 493.294C1.23572 513.008 0.808945 532.729 0.388543 552.443C0.254779 558.341 0 564.265 0 570.183C0 570.833 0.00630441 571.482 0.0126741 572.132C0.668755 636.829 1.23572 701.552 1.98735 766.249C2.00646 768.275 2.17842 770.307 2.28671 772.326C2.55424 777.861 2.82178 783.384 3.09568 788.925C4.00018 807.302 4.90461 825.679 5.81548 844.049C7.94297 887.503 10.096 930.951 12.2298 974.405C12.8349 986.603 13.4273 998.788 14.0324 1010.98C14.2171 1014.7 14.5866 1018.39 14.9433 1022.1C14.5038 1031.73 14.0706 1041.36 13.6375 1050.99C12.1852 1082.96 10.7393 1114.93 9.29978 1146.88C8.94944 1154.62 8.5991 1162.34 8.25513 1170.07C7.87932 1178.28 7.73282 1186.51 7.5481 1194.74C7.1277 1212.44 6.87927 1230.13 6.49708 1247.83C6.49708 1247.88 6.49708 1247.94 6.49708 1247.99C6.49708 1252.25 10.2297 1255.76 14.4337 1255.76C18.8288 1255.76 22.2749 1252.16 22.3704 1247.83C22.759 1230.13 23.0392 1212.44 23.4469 1194.74C23.638 1186.51 23.7845 1178.28 24.173 1170.07C24.5297 1162.34 24.88 1154.62 25.2495 1146.88C25.4278 1142.95 25.619 1139.01 25.7974 1135.07C29.6383 1175.11 33.4983 1215.14 37.3393 1255.18C38.5814 1268.07 39.8171 1280.95 41.0528 1293.84C42.1739 1305.49 43.4988 1317.11 44.9065 1328.72C44.6453 1345.36 44.3459 1361.99 44.072 1378.62C44.002 1382.46 47.3142 1385.65 51.0978 1385.65C51.4036 1385.65 51.6965 1385.6 51.9959 1385.56C52.8176 1392.14 53.6585 1398.71 54.4611 1405.29C54.5566 1406.01 54.6521 1406.74 54.7477 1407.47C55.1426 1408.88 55.856 1410.09 56.8688 1411.11C58.4039 1412.65 60.5186 1413.52 62.6843 1413.52C64.8628 1413.52 66.9775 1412.65 68.5126 1411.11C69.8949 1409.72 71.1688 1407.32 70.9204 1405.29C68.1814 1382.88 65.2832 1360.5 62.5378 1338.09C61.3913 1328.81 60.2129 1319.52 59.181 1310.22C60.0027 1255.99 60.7479 1201.76 61.4741 1147.52C62.0919 1100.68 62.5187 1053.84 62.9264 1007C62.9901 1000.55 63.0538 994.088 63.1111 987.635C65.4488 1036.37 67.7865 1085.09 70.1178 1133.82C71.551 1163.65 72.9778 1193.47 74.411 1223.3C76.392 1264.73 79.0227 1306.13 81.4113 1347.55C81.5706 1350.22 82.3859 1352.61 84.3096 1354.54C86.1632 1356.38 88.6983 1357.44 91.3099 1357.44C96.4757 1357.44 101.52 1352.93 101.202 1347.55C99.2401 1313.39 97.1445 1279.25 95.3483 1245.09C97.2464 1272.98 99.1383 1300.88 101.036 1328.77C102.387 1348.68 105.088 1368.44 107.317 1388.24C107.495 1389.93 107.865 1391.32 109.1 1392.57C110.241 1393.72 111.814 1394.36 113.426 1394.36C115.05 1394.36 116.61 1393.72 117.751 1392.57C118.795 1391.54 119.712 1389.77 119.553 1388.24C117.324 1368.26 114.636 1348.3 113.279 1328.23C112.285 1313.24 111.298 1298.26 110.298 1283.28C107.909 1247.35 105.54 1211.43 103.138 1175.5C102.826 1170.74 102.419 1165.99 102.342 1161.22C102.157 1149.25 101.96 1137.29 101.775 1125.32C101.463 1105.56 101.145 1085.79 100.833 1066.03C102.151 1080.46 103.463 1094.89 104.782 1109.32C106.183 1124.72 107.718 1140.11 108.757 1155.55C110.687 1184.34 112.636 1213.13 114.572 1241.91C113.037 1242.46 111.789 1243.89 111.789 1245.57C111.789 1245.64 111.795 1245.71 111.795 1245.78C114.12 1284.83 116.489 1323.88 119.005 1362.92C119.095 1364.43 119.744 1365.76 121.076 1366.54C121.649 1366.88 122.311 1367.01 122.993 1367.04C123.018 1367.45 123.037 1367.86 123.057 1368.27C122.713 1368.16 122.343 1368.08 121.948 1368.08C120.095 1368.08 118.19 1369.72 118.33 1371.68C119.528 1387.68 120.834 1403.67 122.107 1419.66C123.451 1436.42 125.343 1453.13 127.337 1469.82C127.49 1471.14 127.929 1472.26 129.146 1472.97C130.637 1473.85 132.293 1473.47 133.554 1472.4C134.611 1471.5 135.764 1470.7 136.592 1469.57C136.599 1469.56 136.611 1469.54 136.624 1469.52C136.624 1469.66 136.624 1469.8 136.63 1469.94C136.656 1471.75 137.853 1473.38 139.618 1473.86Z" fill="#3E45EE"/>
</svg>
